{"glyphs":{"乐":{"ha":1389,"x_min":179,"x_max":1207,"o":"m 350 1223 q 358 1226 355 1223 l 372 1226 q 420 1232 396 1232 q 467 1232 445 1232 l 540 1232 l 602 1232 q 675 1232 629 1232 q 769 1227 722 1232 q 857 1215 817 1223 q 922 1194 898 1207 q 941 1164 941 1177 q 925 1137 941 1139 q 892 1134 909 1134 q 882 1137 890 1137 q 821 1146 852 1142 q 757 1150 789 1150 l 713 1150 l 629 1150 l 567 1150 q 473 1153 518 1150 q 382 1166 429 1156 q 351 1183 366 1172 q 336 1210 336 1194 q 350 1223 336 1221 m 637 534 q 544 521 589 524 q 450 518 499 518 q 425 521 434 521 q 404 524 415 521 q 363 544 380 529 q 347 591 347 559 q 358 652 347 610 q 385 742 369 694 q 418 834 401 789 q 445 901 434 879 q 460 956 456 930 q 469 1006 464 982 q 471 1019 469 1009 q 477 1039 472 1028 q 487 1065 477 1053 q 507 1077 496 1077 q 529 1063 524 1077 q 540 1039 534 1058 q 545 1015 545 1028 q 545 996 545 1001 q 528 883 545 941 q 488 768 510 825 q 465 719 475 743 q 448 670 456 694 q 429 608 429 627 q 442 602 429 608 q 513 604 477 602 q 586 613 548 605 q 639 623 613 618 q 694 635 665 627 q 686 711 689 673 q 684 789 684 749 q 686 798 686 795 q 689 806 686 800 q 708 817 694 817 q 743 792 735 817 q 753 758 749 781 q 768 708 757 735 q 784 665 776 684 q 792 654 787 659 q 795 651 792 651 q 825 654 811 651 q 857 659 838 656 q 872 663 865 662 q 887 665 879 665 q 922 667 898 667 q 943 663 930 667 q 955 643 955 659 q 922 595 955 610 q 865 581 890 581 q 837 572 849 575 q 814 564 825 570 q 795 534 795 553 q 806 385 795 461 q 817 233 817 309 q 817 176 817 220 q 814 84 817 133 q 810 52 814 71 q 799 11 806 33 q 781 -27 792 -11 q 754 -43 770 -43 q 654 5 700 -43 q 586 100 608 54 q 555 165 575 119 q 534 236 534 212 q 537 247 534 241 q 553 255 545 255 q 559 254 556 255 q 564 252 562 252 q 570 247 570 247 q 591 224 581 239 q 608 198 602 209 q 633 160 618 176 q 662 127 648 144 q 689 99 678 111 q 713 71 700 87 q 727 174 727 117 q 719 458 727 317 q 716 492 719 475 q 711 524 713 510 q 709 536 711 529 q 708 548 708 543 q 671 545 689 548 q 637 534 654 543 m 841 410 q 898 393 860 410 q 977 357 936 377 q 1054 315 1017 336 q 1101 279 1090 293 q 1122 258 1107 274 q 1142 239 1137 241 q 1146 237 1145 239 q 1153 236 1147 236 q 1161 231 1156 233 q 1165 225 1164 228 q 1169 220 1166 222 q 1192 175 1177 203 q 1207 133 1207 146 q 1192 94 1207 117 q 1156 71 1177 71 q 1119 94 1137 71 q 1096 136 1101 117 q 1057 197 1082 165 q 1001 241 1031 228 q 963 262 979 250 q 930 288 947 274 q 901 312 917 301 q 871 336 884 323 l 830 377 q 825 382 830 377 q 823 387 825 385 q 822 393 822 388 l 822 399 l 827 404 q 841 410 827 410 m 271 3 q 285 14 279 11 q 309 33 301 19 q 331 60 317 46 l 380 109 q 399 125 385 114 q 420 136 412 136 q 437 126 434 136 q 439 109 439 117 q 434 104 434 106 q 431 100 434 103 q 418 79 429 95 q 384 27 407 57 q 334 -33 361 -3 q 275 -84 307 -62 q 220 -106 244 -106 q 195 -100 212 -106 q 179 -76 179 -95 q 198 26 179 -49 q 244 179 217 100 q 301 320 271 258 q 355 382 331 382 q 363 380 361 382 q 374 377 369 380 q 380 363 380 374 q 370 311 380 339 q 353 258 361 282 q 331 203 336 231 q 326 155 326 176 q 319 119 326 136 q 304 90 312 103 q 283 47 293 73 q 271 3 274 22 z "},"你":{"ha":1386,"x_min":-14,"x_max":1402,"o":"m 833 54 q 833 71 833 62 q 833 81 833 79 q 829 229 833 155 q 819 380 825 304 q 810 528 814 453 q 798 675 806 602 q 795 719 795 692 q 799 746 795 735 q 825 757 803 757 q 849 749 836 757 q 868 730 863 741 q 878 712 873 719 q 887 700 882 705 q 911 728 895 713 q 941 757 928 743 q 998 836 987 806 q 1010 867 1001 857 q 1028 882 1020 876 q 1039 887 1028 882 q 1042 891 1039 890 q 1044 898 1044 892 q 1034 906 1044 906 q 906 892 968 906 q 770 876 838 876 q 694 891 716 876 q 651 955 673 906 q 631 1001 640 979 q 616 1036 621 1023 q 606 1061 613 1042 q 591 1103 600 1080 q 576 1149 583 1126 q 570 1180 570 1172 q 576 1188 572 1183 q 589 1194 581 1194 q 608 1183 600 1194 l 618 1169 q 631 1154 621 1166 q 648 1131 640 1142 q 662 1108 656 1120 q 667 1093 667 1096 q 685 1072 678 1082 q 697 1047 692 1061 q 705 1027 703 1036 q 713 1009 708 1017 q 745 963 727 977 q 798 949 762 949 q 906 963 852 949 q 1015 977 960 977 q 1084 962 1050 977 q 1118 903 1118 947 q 1093 830 1118 876 q 1034 741 1069 784 q 959 667 998 697 q 887 637 920 637 q 882 640 884 637 l 879 640 q 873 643 876 643 l 873 632 q 875 625 873 627 q 876 621 876 624 q 890 496 887 562 l 898 366 q 910 214 906 290 q 914 60 914 138 q 916 34 914 52 q 914 -3 917 16 q 905 -42 914 -19 q 879 -65 895 -65 q 823 -39 846 -65 q 787 19 800 -14 q 764 85 773 52 q 754 141 754 119 q 760 157 754 152 l 762 160 l 770 160 q 784 152 779 160 q 789 145 787 146 q 795 138 792 144 q 804 119 800 130 q 817 95 808 109 q 833 54 822 84 m 288 800 q 292 795 290 795 q 296 792 293 795 q 304 787 304 787 q 362 712 339 762 q 396 624 385 662 q 419 526 410 572 q 435 437 429 480 q 444 347 442 393 q 445 247 445 301 q 449 168 445 206 q 453 90 453 130 q 454 57 453 79 q 450 11 456 35 q 438 -33 448 -8 q 404 -57 429 -57 q 381 -46 388 -57 q 372 -24 374 -35 l 372 3 l 372 19 q 373 106 372 62 q 374 190 374 149 q 370 316 374 239 q 353 475 366 393 q 320 627 339 556 q 269 730 301 697 q 258 738 263 735 q 250 735 255 738 l 241 724 q 205 665 233 708 q 142 576 176 621 q 73 499 109 532 q 14 467 38 467 q -11 491 -11 467 q -14 510 -14 499 l -14 524 l -14 532 l -14 545 q -11 552 -11 551 q -8 559 -11 553 q 11 567 0 567 q 19 564 14 564 q 65 601 35 564 q 136 693 95 637 q 218 815 176 749 q 296 943 260 882 q 354 1054 331 1004 q 377 1120 377 1104 q 380 1134 377 1128 q 396 1150 380 1150 q 422 1134 410 1150 q 434 1104 434 1118 q 420 1042 434 1080 q 387 966 407 1004 q 346 892 366 928 q 309 836 326 857 q 300 819 304 827 q 290 806 296 811 q 288 800 288 803 m 583 157 q 589 160 586 157 l 600 160 q 616 141 616 160 q 595 90 616 111 q 551 68 575 68 q 505 117 505 68 q 509 189 505 136 q 524 301 513 241 q 547 407 534 361 q 572 453 559 453 q 598 439 589 453 q 608 412 608 426 q 609 385 610 396 q 608 369 608 374 q 583 157 608 260 m 1150 358 l 1156 361 l 1158 361 q 1213 332 1172 361 q 1295 267 1253 304 q 1370 190 1337 231 q 1402 125 1402 149 q 1370 90 1402 90 q 1331 110 1348 90 q 1305 146 1313 130 q 1263 198 1291 174 q 1213 241 1234 222 q 1198 258 1207 247 q 1172 282 1188 269 q 1153 305 1164 290 q 1142 334 1142 320 q 1143 346 1142 339 q 1150 358 1145 353 z "},"如":{"ha":1392,"x_min":62,"x_max":1326,"o":"m 583 562 l 575 562 q 536 552 567 562 q 468 529 505 543 q 401 502 431 515 q 363 483 372 488 q 345 431 345 464 q 362 392 345 418 q 403 340 380 366 q 449 296 426 315 q 488 277 472 277 q 496 282 494 277 q 510 326 496 285 q 540 414 524 366 q 570 505 556 461 q 583 556 583 548 l 583 562 m 149 415 l 152 412 q 163 407 155 412 l 176 391 q 182 385 182 385 q 187 377 187 380 q 195 353 195 369 q 182 339 195 339 q 174 342 176 339 l 168 347 l 168 350 l 163 358 l 146 372 l 141 382 l 136 399 q 141 410 136 404 l 138 410 q 92 437 122 410 q 62 483 62 464 q 102 530 62 518 q 168 545 141 543 q 203 551 184 548 q 239 556 222 553 q 267 564 258 559 q 282 575 277 570 q 296 610 290 583 q 309 670 301 637 q 320 734 317 705 q 326 779 323 762 q 353 959 339 868 q 372 1139 366 1050 l 372 1153 q 373 1158 372 1156 q 374 1164 374 1161 q 388 1172 382 1172 q 416 1147 412 1172 q 420 1109 420 1123 q 422 1066 423 1085 q 420 1042 420 1047 q 411 823 420 933 q 372 608 401 713 q 370 604 372 605 q 369 600 369 602 l 369 591 l 372 591 q 434 600 399 591 q 496 613 469 608 q 519 618 505 616 q 551 627 534 621 q 564 635 556 632 q 581 640 572 637 q 587 646 586 643 q 591 648 589 648 q 593 656 591 651 q 597 675 594 662 q 602 732 602 705 q 604 783 605 757 q 602 817 602 808 q 600 963 602 892 q 583 1107 597 1034 q 576 1128 581 1118 q 567 1156 572 1139 q 559 1207 559 1180 l 559 1215 q 572 1226 562 1226 q 583 1223 583 1226 q 586 1222 586 1223 q 589 1221 586 1221 q 594 1214 591 1215 q 600 1207 597 1213 q 610 1185 610 1188 q 658 1088 643 1147 q 678 971 673 1028 q 684 850 684 909 q 684 743 684 792 q 684 726 684 738 q 686 703 684 713 q 694 670 686 678 q 705 648 705 665 q 699 625 705 637 q 686 608 692 613 q 667 572 667 591 l 667 564 q 662 553 667 564 q 658 538 662 551 q 650 514 654 526 q 642 490 646 502 q 637 475 637 477 q 618 422 632 464 q 591 334 605 380 q 566 255 575 290 q 556 209 556 220 q 559 203 556 206 q 564 195 562 201 q 575 183 564 193 q 595 161 586 174 q 616 140 605 149 q 629 127 627 130 q 639 111 635 117 q 646 100 643 106 q 652 115 648 106 q 673 125 656 125 q 697 92 697 125 q 724 19 697 60 q 751 -68 751 -24 q 743 -88 751 -79 q 716 -98 735 -98 q 685 -84 703 -98 q 659 -57 667 -71 q 595 24 629 -19 q 526 109 562 68 q 515 125 521 117 q 505 138 510 133 q 499 144 499 144 l 496 144 q 491 141 494 144 l 475 127 q 448 107 464 114 q 401 100 431 100 q 307 148 342 100 q 258 236 271 195 l 241 277 l 274 247 l 285 236 l 293 228 q 316 209 301 222 q 349 184 331 195 q 382 164 366 174 q 404 155 399 155 q 423 167 415 155 q 431 190 431 179 l 431 198 q 407 222 429 212 q 372 244 391 228 q 332 282 353 260 q 297 326 312 304 q 277 361 282 347 q 269 393 271 374 q 266 429 266 412 l 266 477 q 146 464 201 464 l 144 464 q 146 450 144 456 q 152 437 152 437 q 153 433 152 434 q 155 426 155 431 l 152 420 q 149 415 152 418 m 1245 673 q 1199 678 1232 678 l 1147 678 q 1104 678 1134 678 q 1044 675 1074 678 q 1009 673 1025 673 q 979 670 993 673 q 960 665 971 670 l 955 665 q 952 651 952 662 q 958 613 952 637 q 963 594 960 605 q 968 572 966 583 q 977 532 974 551 q 982 496 979 513 q 987 454 985 472 q 990 415 990 437 q 979 336 990 372 q 952 323 974 323 q 925 336 933 323 q 918 351 920 342 q 914 366 917 361 q 910 396 909 380 q 911 420 911 412 q 905 467 911 442 q 892 521 898 491 q 865 624 879 572 q 838 730 852 675 q 822 836 822 787 q 822 846 822 838 q 825 860 822 854 q 830 879 825 868 q 846 890 830 890 q 868 882 860 890 q 871 873 868 876 q 876 863 873 871 q 917 749 901 811 l 1088 749 q 1139 749 1104 749 q 1215 746 1175 749 q 1259 738 1240 741 q 1291 724 1278 735 q 1316 708 1305 719 q 1326 678 1326 697 q 1316 636 1326 656 q 1294 602 1305 616 q 1280 581 1291 600 q 1270 559 1270 562 q 1267 553 1267 553 l 1270 553 q 1275 551 1272 551 q 1280 548 1278 551 q 1289 534 1289 548 q 1283 524 1289 529 q 1240 480 1270 510 q 1175 418 1210 450 q 1105 358 1139 385 q 1055 323 1072 331 q 1039 317 1047 323 q 1006 323 1023 317 q 990 350 990 328 q 993 358 990 353 q 998 363 993 361 q 1006 374 998 366 q 1034 412 1017 385 q 1076 458 1050 434 q 1123 515 1101 483 q 1203 616 1166 572 q 1245 673 1240 659 z "},"姓":{"ha":1389,"x_min":-11,"x_max":1402,"o":"m 65 366 q 71 361 71 363 q 73 353 71 358 q 79 339 76 347 q 84 326 81 331 q 113 264 90 307 q 165 175 136 222 q 227 91 195 127 q 277 54 258 54 q 315 79 290 54 q 339 117 339 103 q 321 141 339 130 q 275 163 304 152 q 221 182 247 174 q 182 193 195 190 q 165 205 176 195 q 155 225 155 214 q 163 251 155 231 q 174 277 171 271 q 203 358 190 315 q 232 426 220 396 q 250 467 244 456 q 232 461 244 467 q 202 446 220 456 q 171 429 184 437 q 152 418 157 420 q 117 399 149 418 q 76 374 84 380 l 65 366 m 388 201 q 391 206 391 203 q 407 260 401 231 q 415 317 412 290 q 427 404 423 363 q 434 456 431 445 q 442 518 437 486 q 448 581 448 551 l 429 572 q 404 559 407 562 q 392 549 399 553 q 374 537 385 545 q 345 515 358 526 q 330 481 342 513 q 301 411 317 450 q 273 334 285 372 q 252 279 260 296 q 282 262 266 274 q 323 239 298 250 q 347 227 336 233 q 369 212 358 220 q 388 201 377 206 m 369 610 q 377 612 374 610 q 385 613 380 613 q 407 624 407 624 q 441 643 431 632 q 450 678 450 654 q 439 754 450 703 q 414 864 429 806 q 384 974 399 922 q 361 1047 369 1025 q 342 1104 345 1082 q 339 1164 339 1126 q 339 1169 339 1166 q 342 1175 339 1172 q 361 1185 350 1185 q 388 1164 377 1185 q 399 1128 399 1142 q 406 1111 404 1120 q 412 1090 407 1101 q 419 1076 418 1082 q 426 1061 420 1069 q 457 983 442 1042 q 487 854 472 925 q 511 720 502 784 q 521 629 521 656 q 518 610 521 616 q 511 578 513 597 q 507 537 510 559 q 490 338 507 437 q 445 144 472 239 q 472 119 450 138 q 513 79 494 100 q 541 50 526 62 q 564 27 556 38 q 581 8 570 22 q 591 -14 591 -5 q 575 -43 591 -30 q 548 -57 559 -57 q 526 -52 540 -57 q 495 -26 510 -43 q 467 5 480 -8 q 456 16 464 8 q 435 34 448 24 q 414 50 423 43 q 399 57 404 57 q 382 35 396 38 q 366 27 374 33 q 350 16 358 22 q 313 4 334 8 q 285 0 293 0 q 255 5 269 0 q 231 19 241 11 q 174 87 214 33 q 92 205 133 141 q 20 324 52 269 q -11 396 -11 380 q 1 425 -11 412 q 30 442 14 437 q 203 526 122 488 q 275 582 260 551 q 290 675 290 613 q 282 811 290 743 q 260 941 274 879 q 259 949 260 947 q 258 955 258 952 q 252 974 252 963 q 279 998 252 998 q 305 986 293 998 q 323 958 317 974 q 349 854 339 914 q 358 746 358 795 q 361 690 361 719 q 363 629 361 662 q 369 610 363 629 m 895 146 l 895 149 l 884 163 q 868 201 868 182 q 871 214 868 209 q 887 228 871 228 q 892 225 890 228 q 898 222 895 225 q 901 221 901 222 q 903 220 901 220 q 909 222 909 220 q 917 236 911 225 q 922 262 922 247 q 925 290 922 277 l 925 363 q 826 336 879 347 q 724 326 773 326 q 669 332 705 326 q 632 363 632 339 q 643 380 632 374 l 648 385 q 654 388 654 385 q 689 401 667 396 q 732 410 711 407 q 803 419 770 415 q 873 434 836 423 l 925 450 l 925 532 q 925 559 925 543 q 922 594 925 575 q 918 612 922 600 q 903 624 914 624 q 875 618 890 624 q 841 608 860 613 q 807 597 827 602 q 773 591 787 591 q 719 605 749 591 q 684 646 689 618 q 678 682 678 659 q 678 732 678 705 q 681 777 681 754 q 681 814 681 800 q 674 861 681 844 q 648 901 667 879 q 637 930 637 914 q 650 948 637 941 q 667 955 662 955 q 730 921 711 955 q 754 849 749 887 q 753 804 754 827 q 751 760 751 781 l 751 735 q 755 696 751 719 q 779 673 760 673 q 841 689 806 673 q 873 700 860 694 q 898 711 887 705 q 888 777 892 743 q 884 844 884 811 q 884 853 884 846 q 887 868 884 860 q 890 882 887 876 q 903 890 890 890 q 925 882 917 890 q 930 873 928 876 q 936 863 933 871 q 941 840 941 852 q 947 811 941 827 q 966 762 958 779 q 974 749 968 754 q 979 746 979 746 q 1008 751 993 746 q 1042 765 1023 757 q 1077 784 1058 776 q 1115 792 1096 792 q 1149 785 1134 792 q 1164 754 1164 779 q 1146 734 1164 746 q 1105 711 1128 722 q 1059 689 1082 700 q 1025 675 1036 678 q 993 656 996 667 q 987 643 987 651 q 990 612 987 637 q 996 556 993 586 q 998 529 996 543 q 1001 505 1001 515 q 1004 480 1004 496 q 1008 479 1006 480 q 1015 477 1009 477 q 1027 475 1020 475 q 1039 472 1034 475 q 1065 464 1053 472 q 1077 439 1077 456 q 1053 415 1077 415 q 1039 412 1050 412 q 1023 403 1034 410 q 1006 391 1012 396 q 997 350 1001 380 q 991 283 993 320 q 989 214 990 247 q 987 163 987 182 q 1020 165 1009 163 q 1191 187 1101 187 q 1241 183 1207 187 q 1312 168 1275 179 q 1375 141 1348 157 q 1402 95 1402 125 q 1392 68 1402 79 q 1364 57 1381 57 q 1318 79 1337 57 q 1265 103 1297 100 q 1204 106 1234 106 q 1128 100 1164 106 q 1053 87 1093 95 q 754 52 903 52 q 707 53 730 52 q 662 57 684 54 q 637 58 656 57 q 601 62 618 60 q 567 69 583 65 q 545 79 551 73 q 532 95 532 84 l 532 98 q 537 103 537 103 q 540 106 537 106 q 544 109 543 109 q 548 111 545 109 q 557 114 553 114 q 567 117 562 114 q 642 130 594 127 q 716 133 689 133 q 806 138 762 136 q 895 146 849 141 z "},"常":{"ha":1389,"x_min":279,"x_max":1107,"o":"m 1015 477 q 1002 476 998 477 q 1001 475 1006 475 q 979 479 985 477 q 971 480 974 480 q 935 477 963 480 q 875 469 906 475 q 822 457 844 464 q 800 442 800 450 q 798 431 798 439 l 798 418 q 802 324 798 372 q 814 239 806 277 q 880 307 844 269 q 955 388 917 345 q 967 407 958 393 q 985 437 977 420 q 1001 456 990 442 q 1012 472 1012 469 l 1015 477 m 613 673 q 637 690 613 675 q 688 723 662 705 q 736 760 713 741 q 760 770 760 779 q 732 768 751 770 q 711 762 722 765 q 686 757 700 760 q 648 750 659 754 q 632 743 637 746 q 623 715 627 738 q 618 689 618 692 q 617 678 618 681 q 616 675 616 675 q 613 673 616 675 m 833 949 q 785 940 806 947 q 741 930 765 933 q 715 922 738 928 q 673 909 692 917 q 620 901 643 906 q 594 895 597 895 q 600 882 594 892 q 609 857 605 871 q 621 836 613 844 q 632 827 629 827 q 643 825 635 825 q 700 834 665 825 q 768 860 735 844 q 830 897 800 876 q 882 928 860 917 q 925 955 906 947 q 926 955 925 955 q 930 955 928 955 q 939 963 936 963 q 947 955 947 974 q 940 958 941 955 q 936 960 939 960 q 922 963 930 963 q 878 959 898 963 q 833 949 857 955 m 589 974 q 586 979 586 971 q 586 990 586 993 q 541 972 572 982 q 488 963 510 963 q 458 967 472 963 q 445 990 445 971 q 469 1015 445 1015 l 488 1015 q 524 1023 499 1015 q 571 1047 548 1031 q 610 1082 594 1063 q 627 1109 627 1101 q 623 1137 627 1118 q 613 1175 618 1156 q 610 1195 610 1188 q 608 1210 610 1202 q 597 1223 602 1221 q 583 1233 591 1226 q 575 1251 575 1240 q 581 1274 575 1261 q 605 1286 586 1286 q 629 1270 618 1286 q 643 1259 637 1264 q 681 1227 673 1248 q 697 1183 689 1207 q 705 1165 697 1177 q 713 1150 713 1153 q 723 1158 713 1150 q 735 1169 732 1166 q 762 1191 743 1183 q 803 1199 781 1199 q 838 1190 819 1199 q 857 1161 857 1180 q 833 1123 857 1139 q 812 1105 822 1112 q 792 1090 803 1099 q 766 1080 779 1082 q 743 1072 754 1077 q 728 1063 735 1066 q 713 1055 722 1061 q 704 1042 708 1053 q 694 1023 700 1031 q 686 1001 689 1006 q 681 990 681 990 q 711 996 689 990 q 730 1002 722 998 q 746 1006 738 1006 q 818 1016 779 1015 q 887 1017 857 1017 l 925 1017 q 947 1017 936 1017 q 966 1015 958 1017 q 1006 996 987 1009 q 1025 955 1025 982 q 993 905 1025 928 q 936 868 960 882 q 920 860 925 863 q 911 854 914 857 q 863 823 873 833 q 846 808 852 814 q 833 779 836 789 q 822 761 827 768 q 800 743 817 754 q 788 732 795 738 q 773 716 781 727 q 768 708 770 711 q 760 705 760 705 q 739 670 760 692 q 692 629 719 648 q 637 597 665 610 q 597 583 610 583 q 552 606 559 583 q 545 651 545 629 q 548 728 545 694 q 551 803 551 762 q 540 882 551 846 l 410 876 q 408 842 410 863 q 407 803 407 822 q 410 696 407 741 q 431 594 412 651 q 452 526 448 556 q 461 467 456 496 q 465 418 464 442 q 472 372 467 393 q 464 372 464 366 q 464 380 464 377 q 475 406 469 393 q 496 426 480 418 q 544 448 513 437 q 610 472 575 458 q 670 484 643 480 q 708 491 697 488 q 707 515 708 499 q 705 543 705 532 q 713 605 705 581 l 713 621 l 732 618 q 758 601 746 613 q 773 572 770 589 q 774 556 773 564 q 776 537 776 548 q 779 532 776 534 q 798 529 781 529 q 850 532 825 529 q 906 534 876 534 q 951 533 917 534 q 1019 525 985 532 q 1080 505 1053 518 q 1107 472 1107 491 q 1086 422 1107 450 q 1034 363 1066 393 q 989 315 1012 339 q 952 277 966 290 l 806 138 q 814 41 811 92 q 817 -68 817 -11 q 817 -84 817 -71 q 814 -109 817 -98 q 803 -141 814 -122 q 773 -160 792 -160 q 749 -141 757 -160 q 738 -133 746 -144 q 735 -122 738 -125 q 732 -92 735 -106 q 731 -57 732 -76 q 730 -11 730 -38 l 730 117 l 730 258 q 727 330 730 293 q 719 391 724 366 q 719 404 719 396 q 719 418 719 410 q 719 420 719 426 q 674 412 694 420 q 632 393 654 404 q 534 374 575 374 q 510 361 515 374 q 505 345 507 355 q 499 320 502 334 q 491 263 499 293 q 483 241 486 255 q 477 212 480 228 q 469 195 475 206 q 450 184 464 184 q 416 195 423 184 q 404 222 410 206 q 399 255 401 239 q 393 290 396 271 q 388 327 388 312 q 388 363 388 342 q 381 420 385 372 q 369 524 377 469 q 361 583 366 553 q 347 646 355 613 q 342 646 342 643 q 317 673 317 646 l 317 681 l 317 684 q 323 747 317 713 q 328 811 328 781 q 321 863 328 838 q 304 917 315 887 q 296 939 301 925 q 285 966 290 952 q 279 1023 279 993 q 282 1039 279 1028 q 289 1054 282 1047 q 309 1061 296 1061 q 342 1034 331 1061 q 355 1017 350 1025 q 366 993 361 1009 q 374 972 372 979 q 382 955 377 966 l 393 944 q 426 948 396 944 q 494 960 456 952 q 529 967 510 966 q 556 968 548 968 q 568 971 564 971 q 581 974 572 971 l 589 974 m 342 1267 q 380 1251 361 1267 q 412 1214 399 1234 q 439 1173 426 1194 q 458 1137 453 1153 q 468 1118 461 1128 q 480 1099 475 1107 q 505 1085 488 1090 q 509 1085 505 1085 q 521 1085 513 1085 q 526 1082 524 1082 q 537 1077 534 1080 q 543 1063 543 1072 q 519 1034 543 1053 q 486 1015 496 1015 q 460 1021 475 1015 q 439 1034 445 1028 q 407 1072 426 1042 q 368 1134 388 1101 q 331 1199 347 1166 q 315 1245 315 1232 q 342 1267 315 1267 z "},"幸":{"ha":1392,"x_min":157,"x_max":1232,"o":"m 906 890 q 936 872 925 890 q 947 841 947 854 q 917 772 947 811 q 852 694 887 732 q 802 639 827 665 q 760 597 776 613 q 842 601 800 600 q 925 602 884 602 q 960 572 960 602 q 955 556 960 562 l 944 548 q 886 528 936 537 q 776 509 836 518 q 662 492 716 499 q 591 486 608 486 q 553 496 572 486 q 534 526 534 507 q 551 562 534 551 q 621 605 589 591 q 637 618 632 610 q 648 635 643 627 q 662 674 656 646 q 673 734 667 703 q 681 796 678 765 q 684 844 684 827 q 514 810 591 822 q 336 798 437 798 q 304 799 326 798 q 259 802 282 800 q 216 807 236 803 q 187 817 195 811 q 167 836 176 827 q 157 857 157 844 l 157 868 q 171 873 157 868 l 176 873 q 195 876 182 876 q 222 879 209 879 q 255 879 236 879 q 313 882 285 882 q 350 882 342 882 q 420 883 374 882 q 515 890 467 884 q 608 906 564 895 q 667 933 651 917 q 696 979 684 944 q 708 1031 708 1015 q 684 1051 708 1044 q 648 1058 659 1058 q 608 1061 637 1061 q 567 1066 589 1063 q 529 1074 545 1069 q 500 1090 513 1080 q 488 1123 488 1101 q 500 1153 488 1147 q 526 1158 513 1158 q 624 1154 575 1158 q 722 1147 673 1150 q 711 1256 711 1204 q 713 1267 711 1261 q 716 1272 716 1270 q 724 1274 722 1272 q 730 1275 727 1275 q 768 1253 749 1275 q 773 1233 770 1245 q 779 1210 776 1221 q 781 1200 779 1204 q 787 1188 784 1196 q 792 1175 787 1180 q 806 1166 798 1166 q 868 1180 830 1166 q 883 1190 876 1185 q 898 1196 890 1194 q 930 1202 922 1202 q 947 1194 944 1202 l 952 1188 l 952 1175 q 936 1147 952 1161 l 917 1126 q 892 1111 906 1115 q 868 1101 879 1107 l 825 1082 q 799 1065 808 1077 q 789 1020 789 1053 q 762 947 789 982 l 770 947 l 773 949 l 779 949 q 868 967 819 960 q 968 981 917 974 q 1069 990 1020 987 q 1161 993 1118 993 q 1204 989 1177 993 q 1232 960 1232 985 q 1227 940 1232 949 q 1215 925 1223 930 q 1191 917 1210 920 q 1164 914 1172 914 q 1126 909 1145 909 q 1101 909 1107 909 q 1034 905 1082 909 q 928 892 985 901 q 917 891 922 892 q 906 890 911 890 m 768 700 q 791 726 776 705 q 823 769 806 746 q 854 814 841 792 q 871 846 868 836 q 873 859 871 849 q 879 871 876 868 q 895 890 882 882 q 815 876 849 884 q 773 860 781 868 q 768 825 768 854 q 762 796 762 808 q 762 779 762 784 l 762 738 q 768 700 762 711 m 768 380 q 769 407 768 393 q 770 431 770 420 q 773 441 773 437 q 776 450 773 445 q 779 454 779 453 q 781 458 779 456 q 785 460 784 458 q 792 461 787 461 q 817 434 817 461 q 821 415 819 426 q 825 388 822 404 q 836 347 830 361 q 852 336 844 336 q 898 339 876 336 q 941 347 920 342 q 964 353 955 350 q 987 358 974 355 q 1012 361 1001 361 q 1034 361 1023 361 q 1084 351 1055 361 q 1112 317 1112 342 q 1093 292 1112 298 q 1061 285 1074 285 q 1001 277 1031 285 q 968 270 985 271 q 936 266 952 269 l 849 252 l 849 65 l 849 -38 q 849 -75 849 -57 q 846 -106 849 -92 q 844 -127 846 -122 l 844 -136 q 836 -145 844 -141 q 822 -149 827 -149 q 776 -122 784 -149 q 773 -110 773 -117 q 770 -98 773 -103 l 770 106 q 772 132 770 111 q 770 176 773 152 q 768 212 770 201 q 762 222 768 220 q 709 209 746 222 q 654 190 673 195 q 537 155 605 171 q 412 138 469 138 q 387 141 404 138 q 351 151 369 144 q 321 168 334 157 q 309 190 309 179 q 328 217 309 209 q 376 227 353 225 q 420 228 399 228 q 594 258 502 231 q 680 285 637 274 q 760 312 722 296 q 761 339 760 320 q 768 380 762 358 z "},"快":{"ha":1386,"x_min":114,"x_max":1272,"o":"m 326 1264 q 353 1259 339 1264 q 366 1240 366 1253 q 369 1234 366 1240 l 377 1226 q 393 1218 380 1223 q 410 1207 404 1213 q 425 1198 415 1202 q 445 1185 434 1194 q 461 1156 461 1177 q 456 1118 461 1139 q 445 1017 445 1072 q 445 968 445 993 q 448 920 445 944 q 468 537 461 730 q 475 155 475 345 q 476 100 475 144 q 475 8 477 57 q 473 -39 475 -14 q 469 -84 472 -65 q 464 -114 469 -98 q 448 -136 458 -130 l 442 -136 q 399 -118 410 -136 q 382 -76 388 -100 q 377 -28 377 -52 q 377 5 377 -5 q 382 155 377 81 q 388 301 388 228 q 382 502 388 404 q 372 700 377 600 q 362 864 366 784 q 355 1028 358 944 q 355 1054 355 1042 q 353 1080 355 1066 q 350 1119 353 1104 q 331 1156 347 1134 q 315 1177 326 1161 q 305 1194 309 1185 q 293 1207 301 1202 q 285 1234 285 1221 q 298 1257 285 1251 q 326 1264 312 1264 m 822 461 l 833 521 q 836 540 836 529 q 836 559 836 551 l 836 567 q 822 557 830 567 q 811 543 814 548 q 785 513 800 524 q 754 488 770 502 q 736 475 746 483 q 719 461 727 467 q 751 460 735 461 q 784 458 768 458 q 811 461 798 458 l 822 461 m 985 846 l 966 846 l 952 846 q 947 844 947 844 l 944 838 l 944 825 l 944 803 q 967 823 955 808 q 985 846 979 838 m 925 382 q 936 377 930 382 q 996 328 968 353 q 1050 279 1023 304 q 1074 256 1055 274 q 1112 220 1093 239 q 1150 187 1131 201 q 1175 174 1169 174 q 1195 168 1185 174 q 1204 149 1204 163 q 1218 126 1204 141 q 1237 106 1232 111 q 1261 75 1251 92 q 1272 35 1272 57 q 1264 5 1272 19 q 1234 -8 1256 -8 q 1162 39 1215 -8 q 1051 149 1109 87 q 944 271 993 212 q 887 358 895 331 q 875 326 882 345 q 857 285 868 307 q 834 218 844 252 q 811 152 825 184 q 783 84 795 117 q 754 27 770 52 q 727 -12 743 5 q 689 -30 711 -30 q 667 -18 673 -30 q 662 0 662 -5 q 670 38 662 14 q 688 87 678 62 q 708 134 697 111 q 727 171 719 157 q 766 269 749 220 q 784 353 784 317 q 760 366 784 363 q 730 369 746 369 q 694 372 713 369 q 621 382 662 372 q 581 437 581 393 q 585 456 581 450 q 594 467 589 461 l 602 475 q 600 476 600 475 q 597 477 600 477 q 591 481 594 480 q 586 486 589 483 q 505 555 534 515 q 475 654 475 594 q 477 667 475 662 q 502 692 477 692 q 511 689 507 692 q 521 684 515 686 q 532 673 526 678 q 543 662 537 667 q 564 633 556 648 q 586 605 572 618 q 632 549 608 572 q 681 526 656 526 q 712 548 686 526 q 766 598 738 570 q 819 652 795 627 q 846 689 844 678 q 857 722 852 703 l 857 760 q 853 806 857 776 q 841 844 849 836 q 825 852 841 844 q 792 860 817 854 q 747 871 770 868 q 700 879 724 873 q 608 911 651 887 q 564 985 564 936 q 568 1002 564 990 q 591 1015 572 1015 q 609 1012 600 1015 q 635 1001 618 1009 q 662 989 648 996 q 692 977 675 982 q 761 951 724 963 q 838 939 798 939 q 852 947 849 939 q 857 979 857 955 q 860 996 857 990 l 860 1017 q 868 1031 863 1023 q 887 1039 873 1039 q 920 1020 911 1039 q 921 1015 920 1017 q 922 1004 922 1012 q 924 998 922 1001 q 925 990 925 996 l 925 974 q 928 966 928 968 q 930 955 928 963 q 944 936 936 941 q 987 925 952 930 q 1020 921 1004 922 q 1053 917 1036 920 q 1082 911 1066 914 q 1112 903 1099 909 q 1134 892 1123 898 q 1145 873 1145 887 q 1122 829 1145 849 q 1080 798 1099 808 q 1055 779 1066 789 q 1028 754 1044 768 q 1025 749 1025 749 q 1020 741 1025 746 q 1009 722 1015 735 q 994 704 1004 711 q 982 694 985 697 q 958 651 971 678 q 935 593 944 624 q 920 532 925 562 q 914 480 914 502 l 920 480 q 936 477 925 477 q 1002 491 966 477 q 1074 518 1039 505 q 1109 534 1093 526 q 1142 548 1126 543 q 1191 562 1169 562 q 1218 534 1218 562 q 1203 500 1218 515 q 1166 475 1188 486 q 1118 452 1145 461 q 1061 431 1090 442 q 1005 412 1034 420 q 955 393 977 404 q 925 382 936 388 m 228 678 q 224 618 228 665 q 212 521 220 572 q 208 492 212 513 q 201 450 203 472 q 194 410 198 429 q 184 385 190 391 q 182 374 184 377 q 165 369 171 369 q 129 380 144 369 q 114 415 114 391 q 119 467 114 437 q 132 582 130 524 q 133 697 133 640 q 133 760 133 730 q 136 822 133 789 l 136 841 q 138 854 138 846 q 141 860 138 860 q 152 871 146 871 q 187 846 174 871 q 210 789 201 822 q 224 726 220 757 q 228 678 228 694 z "},"愿":{"ha":1389,"x_min":92,"x_max":1297,"o":"m 700 475 l 700 480 q 703 495 703 486 q 705 513 703 505 l 705 570 l 705 594 l 705 613 q 692 632 703 632 q 654 621 675 632 q 632 600 632 610 q 640 574 632 591 q 661 536 648 556 q 684 498 673 515 q 700 475 694 480 m 586 792 l 605 803 q 718 848 662 836 q 838 868 773 860 q 864 876 852 868 q 879 898 876 884 l 871 898 q 836 903 852 903 q 800 906 819 903 q 709 916 754 914 q 618 917 665 917 q 602 917 613 917 q 575 914 591 917 q 559 903 564 914 q 562 898 562 898 q 564 890 564 895 q 567 884 567 887 q 570 879 567 882 q 572 867 572 873 q 575 854 572 860 q 583 825 583 841 q 586 792 583 808 m 290 1126 q 301 1115 296 1120 q 315 1101 307 1109 q 328 1090 323 1093 q 363 1062 350 1082 q 377 1020 377 1042 q 376 993 377 1004 q 372 968 374 982 q 362 860 363 914 q 358 751 361 806 q 342 575 355 673 q 307 377 328 477 q 256 182 285 277 q 193 14 228 87 q 165 -27 182 -8 q 130 -46 149 -46 q 106 -42 119 -46 q 92 -24 92 -38 q 111 22 92 3 q 134 56 127 38 q 146 98 141 73 q 161 137 152 117 q 176 179 171 157 q 269 575 241 374 q 296 982 296 776 q 286 1036 296 1017 q 247 1077 277 1055 q 225 1099 241 1082 q 201 1120 209 1115 q 195 1123 201 1123 q 193 1123 195 1123 q 170 1128 182 1123 q 155 1150 157 1134 l 155 1158 q 168 1175 155 1169 q 256 1202 198 1194 q 353 1210 315 1210 q 468 1218 410 1215 q 586 1221 526 1221 q 637 1221 610 1221 q 692 1223 665 1221 q 795 1234 751 1223 q 841 1245 819 1242 q 884 1248 863 1248 q 930 1240 909 1248 q 952 1204 952 1232 q 922 1169 952 1180 q 829 1153 887 1156 q 732 1150 770 1150 q 700 1147 722 1147 q 703 1145 703 1147 q 705 1142 703 1142 q 703 1109 705 1118 q 678 1077 700 1101 q 613 1023 648 1047 q 581 1000 597 1009 q 551 979 564 990 q 529 963 534 968 q 545 955 534 955 q 572 966 556 955 q 621 977 589 974 q 690 982 654 979 q 762 985 727 985 q 817 985 798 985 q 849 985 822 985 q 906 982 876 985 q 963 977 933 982 q 982 967 971 977 q 993 949 993 958 q 985 917 993 936 q 963 882 977 898 q 930 834 947 857 q 892 789 914 811 q 825 701 852 741 q 798 646 798 662 q 815 609 798 618 q 854 594 833 600 q 895 581 868 591 q 951 553 922 570 q 1001 522 979 537 q 1023 488 1023 507 q 1010 467 1023 472 q 985 461 998 461 q 944 471 971 461 q 886 494 917 480 q 829 521 854 507 q 789 548 803 534 q 784 526 789 545 q 777 496 779 513 q 773 464 776 480 q 770 438 773 456 q 761 403 768 420 q 746 373 754 385 q 727 361 738 361 q 694 372 708 361 q 667 396 681 382 q 648 434 656 415 q 632 472 640 453 q 616 510 621 491 q 605 545 610 529 q 594 564 597 564 q 575 548 586 562 q 480 420 529 475 q 457 396 469 407 q 429 385 445 385 q 412 391 420 385 q 404 410 404 396 q 435 473 404 426 q 509 571 467 521 q 591 661 551 621 q 651 700 632 700 q 659 703 654 703 q 671 708 665 705 q 684 713 678 711 q 704 724 686 713 q 741 745 722 735 q 777 766 760 754 q 800 784 795 779 q 808 789 803 784 l 803 789 q 776 784 792 789 q 749 770 760 779 q 724 765 732 765 q 666 768 694 765 q 608 781 637 770 l 589 787 q 593 746 591 762 q 594 708 594 730 q 583 670 594 692 q 553 648 572 648 q 521 670 534 648 q 509 713 513 689 q 499 757 505 738 q 495 788 496 770 q 491 822 494 806 q 473 894 483 860 q 448 966 464 928 q 437 1001 437 982 l 437 1012 q 463 1029 445 1025 q 496 1034 480 1034 q 529 1046 507 1034 q 574 1074 551 1058 q 617 1108 597 1090 q 646 1137 637 1126 q 621 1139 640 1139 q 601 1142 610 1142 q 586 1142 591 1142 q 525 1141 567 1142 q 439 1137 483 1139 q 354 1131 396 1134 q 290 1126 312 1128 m 803 347 q 808 357 803 350 q 822 363 814 363 q 857 351 841 363 q 887 326 873 339 q 901 315 898 315 q 917 298 909 307 q 936 282 925 290 q 971 266 960 266 q 994 260 982 266 q 1006 241 1006 255 q 983 210 1006 220 q 939 201 960 201 q 895 216 920 201 q 849 251 871 231 q 814 294 827 271 q 800 336 800 317 q 803 347 800 345 m 667 312 q 674 296 673 304 q 678 282 675 288 l 678 231 q 677 167 678 198 q 675 103 675 136 l 675 60 q 681 -1 675 35 q 722 -38 686 -38 q 776 -26 743 -38 q 840 3 808 -14 q 892 43 871 19 q 914 95 914 68 q 917 109 914 106 q 921 123 917 114 q 939 133 925 133 q 975 102 963 133 q 987 52 987 71 q 954 -12 987 19 q 875 -66 920 -43 q 784 -104 830 -90 q 711 -119 738 -119 q 643 -98 667 -119 q 609 -42 618 -76 q 597 28 600 -8 q 594 98 594 65 q 613 282 594 198 q 617 300 613 288 q 629 317 621 312 q 646 326 629 326 q 667 312 662 326 m 494 293 q 505 236 505 269 q 492 170 505 220 q 464 68 480 119 q 427 -26 448 16 q 388 -73 407 -68 q 378 -75 382 -73 q 369 -76 374 -76 q 339 -49 339 -76 q 350 -14 339 -27 q 389 65 372 16 q 415 152 407 114 q 420 186 415 160 q 435 239 426 212 q 456 286 445 266 q 477 307 467 307 q 487 301 483 307 q 494 293 491 296 m 1248 231 q 1252 232 1251 231 q 1256 233 1253 233 q 1283 209 1270 233 q 1297 171 1297 184 q 1282 134 1297 155 q 1248 114 1267 114 q 1213 137 1240 114 q 1157 190 1185 160 q 1107 247 1128 220 q 1085 282 1085 274 q 1090 296 1085 288 q 1109 304 1096 304 q 1147 293 1123 304 q 1165 281 1156 288 q 1188 266 1175 274 q 1217 244 1196 258 q 1248 231 1237 231 z "},"日":{"ha":1386,"x_min":347,"x_max":1039,"o":"m 966 1074 q 996 1025 982 1063 q 1017 935 1009 987 q 1029 817 1025 882 q 1036 686 1034 751 q 1039 548 1039 616 q 1039 423 1039 480 q 1038 320 1039 366 q 1036 247 1036 274 l 1036 171 q 1032 123 1034 146 q 1025 87 1031 100 q 996 49 1017 57 q 947 41 974 41 q 857 79 890 41 q 800 163 825 117 q 784 206 792 184 q 770 241 776 228 q 762 256 765 250 q 757 269 760 263 q 751 274 751 274 q 732 269 743 274 q 617 214 675 239 q 496 184 559 190 q 477 183 488 184 q 456 182 467 182 q 426 165 434 176 q 408 149 418 157 q 382 141 399 141 q 353 153 358 141 q 347 182 347 165 q 368 416 347 301 q 388 651 388 532 q 385 730 388 673 q 378 846 382 787 q 369 958 374 906 q 358 1023 363 1009 l 358 1028 q 355 1031 355 1031 q 353 1042 353 1034 l 353 1047 l 363 1061 l 369 1061 q 388 1044 377 1058 q 411 1017 401 1034 q 426 987 420 1001 q 448 914 442 960 q 458 814 453 868 q 465 728 464 768 q 469 662 467 689 q 500 658 486 659 q 529 656 515 656 q 595 662 556 656 q 674 677 635 667 q 751 696 713 686 q 819 713 789 705 q 827 716 822 716 q 845 707 841 716 q 849 686 849 697 q 808 642 849 662 q 713 608 768 621 q 609 585 659 594 q 543 575 559 575 l 515 575 l 491 575 q 472 567 477 572 q 464 521 469 564 q 452 426 458 477 q 439 328 445 374 q 434 269 434 282 q 453 266 445 266 q 513 273 477 266 q 583 289 548 279 q 654 311 618 298 q 711 334 689 323 q 753 350 727 339 q 792 361 779 361 q 800 358 798 361 q 814 342 814 358 l 814 331 q 811 323 811 328 q 803 315 803 317 q 819 267 803 296 q 857 210 836 239 q 902 160 879 182 q 936 138 925 138 q 941 141 939 138 l 941 146 q 943 159 941 152 q 944 176 944 165 q 945 210 944 190 q 947 252 947 231 q 949 335 952 296 q 947 380 947 374 q 947 453 947 399 q 945 578 947 507 q 943 727 944 648 q 940 871 941 806 q 936 981 939 936 q 928 1031 933 1025 q 921 1032 925 1031 q 911 1034 917 1034 q 887 1032 898 1034 q 863 1028 876 1031 q 787 1008 827 1023 q 703 982 746 993 q 610 962 654 971 q 518 952 567 952 q 513 955 515 955 q 507 960 510 955 q 496 977 496 966 q 505 987 496 987 q 515 996 510 993 q 555 1010 529 1001 q 594 1020 581 1020 q 681 1036 637 1028 q 770 1061 724 1044 q 841 1077 800 1069 q 917 1085 882 1085 q 966 1074 944 1085 z "},"活":{"ha":1386,"x_min":122,"x_max":1261,"o":"m 1082 1134 q 1072 1112 1082 1123 q 1059 1104 1066 1107 q 1044 1093 1053 1101 q 998 1080 1028 1085 q 936 1069 968 1074 q 871 1061 903 1063 q 825 1058 838 1058 q 765 1063 795 1058 q 705 1082 735 1069 q 678 1097 697 1082 q 659 1123 659 1112 q 665 1134 659 1131 q 673 1139 670 1137 q 681 1142 678 1142 q 689 1147 684 1142 l 713 1147 q 773 1143 746 1147 q 833 1139 800 1139 q 887 1145 863 1139 q 933 1156 911 1150 q 983 1164 960 1161 q 1031 1166 1006 1166 q 1066 1162 1050 1166 q 1082 1134 1082 1158 m 860 697 q 830 694 841 697 q 812 689 822 692 q 795 684 803 686 q 757 670 776 675 q 713 665 738 665 q 648 682 670 665 q 627 749 627 700 l 629 751 q 632 757 632 757 q 646 765 632 765 q 659 762 656 765 q 675 757 662 762 q 705 751 686 751 q 742 754 719 751 q 791 762 765 757 q 837 774 817 768 q 865 787 857 781 q 878 811 876 792 q 879 841 879 830 q 879 852 879 844 q 882 873 879 860 q 883 883 882 879 q 884 890 884 887 l 887 892 q 890 895 890 895 q 898 903 890 903 q 914 898 909 903 l 922 890 q 947 859 936 884 q 958 817 958 833 l 958 811 l 958 806 q 986 811 971 806 q 1015 825 1001 817 q 1053 838 1036 836 q 1085 844 1074 844 q 1099 841 1096 844 q 1104 836 1101 838 q 1105 829 1104 830 q 1107 825 1107 827 q 1093 796 1107 808 q 1062 772 1080 784 q 1024 753 1044 760 q 990 741 1004 746 q 974 728 979 735 q 966 719 968 722 q 945 684 955 705 q 930 648 936 662 q 892 555 911 602 q 841 467 873 507 q 830 456 841 467 l 819 442 q 811 439 817 439 q 795 450 795 439 q 793 453 795 453 q 792 456 792 453 q 792 458 792 456 q 806 518 792 480 q 827 578 819 556 q 850 639 841 610 q 860 697 860 667 m 174 635 l 174 646 q 176 651 176 648 q 179 656 176 654 q 193 665 187 665 q 222 659 206 665 q 273 646 244 654 q 323 637 301 637 q 361 640 342 637 q 399 643 380 643 q 435 639 415 643 q 456 610 456 635 q 450 600 456 605 l 442 591 q 430 582 434 583 q 423 578 426 581 q 410 572 420 578 q 406 571 407 572 q 401 570 404 570 l 382 570 l 380 570 q 354 568 366 570 q 328 564 342 567 q 304 559 312 559 q 274 556 290 556 q 205 575 236 556 q 174 635 174 594 m 133 1072 l 144 1077 l 149 1069 q 201 1042 160 1055 q 252 1029 225 1036 q 309 1017 279 1023 q 347 1006 323 1015 q 396 989 372 998 q 439 964 420 979 q 458 933 458 949 q 456 917 458 922 q 452 903 456 909 q 434 898 448 898 q 380 906 407 898 q 328 922 353 920 q 270 936 307 928 q 201 962 233 944 q 145 1002 168 979 q 122 1055 122 1025 q 133 1072 122 1069 m 656 464 l 659 467 l 659 472 q 667 479 662 475 q 678 483 673 483 q 692 477 686 483 l 703 467 q 719 434 713 453 q 731 400 724 415 q 741 380 738 385 q 749 358 746 369 q 757 334 751 347 l 811 366 q 882 397 833 380 q 987 427 930 415 q 1096 449 1044 439 q 1175 458 1147 458 q 1225 446 1199 458 q 1251 407 1251 434 q 1213 346 1251 388 q 1137 263 1175 304 q 1067 194 1101 225 q 1012 141 1034 163 l 1112 136 q 1176 134 1137 136 q 1237 125 1215 133 q 1253 115 1245 125 q 1261 98 1261 106 q 1259 71 1261 81 q 1251 60 1259 68 q 1246 58 1248 60 q 1242 57 1245 57 q 1215 52 1223 52 q 1145 43 1183 46 l 1023 43 q 991 43 1017 43 q 933 46 966 43 q 913 47 928 46 q 884 52 898 49 q 860 60 871 54 q 849 79 849 65 q 856 95 849 87 q 868 109 863 103 q 879 119 871 111 q 892 127 887 127 q 994 218 936 163 q 1077 323 1053 274 q 1153 391 1109 366 q 1085 380 1120 391 q 936 339 1012 355 q 779 323 860 323 l 765 323 q 770 312 765 323 q 807 182 800 250 q 814 49 814 114 q 815 30 814 43 q 814 3 817 16 q 803 -26 811 -11 q 776 -41 795 -41 q 754 -33 760 -41 q 746 -14 749 -24 q 741 5 743 -5 q 735 27 738 16 q 728 73 730 52 q 727 103 727 95 q 713 213 722 160 q 689 320 705 266 q 680 346 684 331 q 670 377 675 361 q 656 464 656 415 m 496 434 q 486 382 496 420 q 458 298 475 345 q 422 201 442 252 q 378 107 401 149 q 335 38 355 65 q 301 11 315 11 q 274 18 285 11 q 263 43 263 24 q 278 90 263 60 q 307 136 293 119 q 387 271 355 201 q 450 418 418 342 q 457 427 456 423 q 461 437 458 431 l 469 445 q 480 453 469 453 q 496 434 496 453 z "},"生":{"ha":1389,"x_min":52,"x_max":1337,"o":"m 686 711 l 461 711 q 441 644 456 692 q 407 548 426 597 q 384 490 396 515 q 361 442 372 464 q 331 406 345 420 q 288 391 317 391 q 277 410 277 396 l 277 415 q 279 420 279 418 q 285 434 285 431 q 296 458 296 458 q 392 723 361 586 q 448 998 423 860 l 410 1058 q 385 1093 404 1072 q 353 1120 366 1115 q 345 1123 350 1120 q 334 1131 342 1123 l 331 1139 l 339 1147 q 363 1153 350 1153 q 407 1135 382 1153 q 454 1095 431 1118 q 494 1044 477 1072 q 510 993 510 1017 q 507 933 510 963 q 499 876 505 903 q 491 821 494 846 q 480 768 488 795 q 521 773 496 770 q 570 779 545 776 q 618 789 589 784 q 665 795 648 795 q 670 798 667 798 q 675 803 673 798 q 646 979 675 895 q 644 985 646 982 q 643 993 643 987 q 655 1019 643 1009 q 684 1028 667 1028 q 696 1024 692 1028 q 703 1017 700 1020 q 705 998 705 1012 q 719 947 705 977 q 743 892 732 917 q 749 854 749 882 q 751 836 749 841 q 757 827 751 833 q 765 826 762 827 q 770 825 768 825 q 818 831 792 825 q 844 868 844 838 q 865 882 852 882 q 887 878 873 882 q 916 865 901 873 q 943 848 930 857 q 955 825 955 838 q 930 784 955 798 q 882 765 906 770 q 792 743 833 757 q 781 727 784 743 q 779 705 779 711 q 776 671 776 689 q 776 646 776 654 q 777 609 776 632 q 783 566 779 586 q 798 529 787 545 q 827 513 808 513 q 844 509 836 513 q 852 491 852 505 q 842 461 852 469 q 819 445 833 453 q 777 399 787 434 q 768 331 768 363 q 758 300 762 323 q 746 250 754 277 q 727 206 741 233 q 692 179 713 179 q 654 197 678 179 q 629 231 629 214 q 635 244 629 239 q 639 245 637 244 q 643 247 640 247 q 651 250 648 250 q 656 252 654 250 q 673 274 665 252 q 686 324 681 296 q 694 380 692 353 q 697 415 697 407 q 659 407 678 415 q 636 399 646 404 q 610 388 627 393 q 556 372 586 380 q 499 363 526 363 q 458 370 480 363 q 437 399 437 377 q 446 420 437 415 q 464 429 456 426 q 517 442 477 431 q 597 464 556 453 q 647 480 621 469 q 694 505 673 491 l 700 510 q 703 548 703 521 q 692 673 703 616 q 692 684 692 675 q 689 700 692 692 q 688 705 689 703 q 686 711 686 708 m 1318 98 q 1326 94 1324 95 q 1332 87 1329 92 q 1337 71 1337 81 q 1291 27 1337 27 q 1238 35 1264 27 q 1191 54 1213 43 q 1145 72 1169 62 q 1099 87 1120 81 q 1035 92 1066 92 q 971 92 1004 92 q 713 72 841 92 q 461 24 586 52 q 381 8 420 16 q 304 -5 342 0 q 224 -18 263 -11 q 144 -24 184 -24 q 94 -16 122 -24 q 54 14 65 -8 l 52 19 l 57 22 q 122 39 71 27 q 248 68 174 52 q 410 100 323 84 q 572 132 496 117 q 708 155 648 146 q 784 165 768 163 q 875 176 830 174 q 966 179 920 179 q 1054 176 1006 179 q 1149 164 1101 174 q 1241 140 1196 155 q 1318 98 1286 125 z "},"的":{"ha":1389,"x_min":81,"x_max":1308,"o":"m 90 1115 q 100 1123 90 1118 q 114 1124 106 1123 q 127 1126 122 1126 l 179 1126 q 250 1126 209 1126 q 335 1122 290 1126 q 422 1115 380 1118 q 491 1107 464 1112 q 521 1092 507 1104 q 534 1066 534 1080 q 524 1051 534 1058 q 505 1042 513 1044 q 476 1036 491 1036 q 448 1034 461 1036 l 358 1034 q 305 1035 336 1034 q 239 1039 274 1036 q 171 1048 203 1042 q 122 1063 138 1055 q 92 1078 103 1069 q 81 1107 81 1088 q 90 1115 81 1112 m 1180 906 q 1142 903 1156 906 q 1058 892 1104 892 q 958 914 1001 892 q 876 979 914 936 l 836 1025 q 815 1051 827 1034 q 803 1077 803 1069 q 812 1099 803 1085 q 838 1112 822 1112 q 849 1109 846 1112 q 854 1107 852 1109 q 924 1058 887 1088 q 982 1001 960 1028 q 1029 982 998 985 q 1074 979 1061 979 q 1142 981 1109 979 q 1191 982 1175 982 q 1278 959 1248 982 q 1308 876 1308 936 l 1308 754 q 1301 593 1308 711 q 1276 349 1294 475 q 1230 121 1259 222 q 1158 8 1202 19 q 1118 0 1128 0 q 1054 7 1093 0 q 990 41 1015 14 q 954 99 974 62 q 913 178 933 136 q 879 258 892 220 q 865 323 865 296 q 882 331 868 331 l 890 331 l 890 328 q 901 309 895 317 q 911 293 906 301 q 944 235 920 271 q 996 164 968 198 q 1048 104 1023 130 q 1088 79 1074 79 q 1131 125 1115 79 q 1203 404 1180 244 q 1226 694 1226 564 q 1226 736 1226 703 q 1223 811 1226 770 q 1221 853 1221 836 q 1218 887 1221 871 q 1213 909 1218 903 q 1180 906 1194 909 m 627 201 q 631 224 629 212 q 632 252 632 236 q 635 308 635 282 q 635 342 635 334 q 633 425 635 361 q 627 564 632 488 q 614 651 618 610 q 597 735 610 692 l 586 746 q 526 724 575 746 q 415 675 477 703 q 321 633 366 654 q 258 605 277 613 l 258 453 l 258 366 q 255 335 255 347 q 250 312 255 323 q 244 293 250 298 q 236 274 244 285 q 225 244 225 263 q 221 218 225 233 q 193 203 217 203 q 187 205 187 203 q 184 201 187 206 q 179 209 184 206 q 179 212 179 212 q 176 231 176 222 q 174 250 174 239 q 168 324 168 288 q 165 396 168 361 l 165 618 q 165 792 165 708 q 174 960 165 876 l 174 968 l 184 968 q 206 951 198 968 q 220 910 214 933 q 228 867 225 887 q 231 836 231 846 q 237 779 233 822 q 247 719 241 735 q 250 708 247 713 q 269 705 258 705 q 334 716 307 705 q 372 730 355 722 q 404 743 388 738 q 476 773 437 760 q 556 787 515 787 q 637 762 608 787 q 684 703 667 738 q 707 623 700 667 q 713 534 713 578 q 715 479 716 505 q 713 426 713 453 q 715 339 713 407 q 713 195 716 271 q 708 127 711 160 q 700 65 705 95 q 693 26 700 52 q 665 0 686 0 q 633 18 648 0 q 613 52 618 35 q 583 109 600 73 q 553 184 567 144 q 529 262 540 225 q 515 323 518 298 l 513 336 l 529 331 q 543 326 537 331 q 549 317 545 326 q 553 304 553 309 q 562 282 553 298 q 582 247 570 266 q 605 210 594 228 q 621 187 616 193 q 627 201 627 187 m 898 589 q 954 582 928 589 q 1004 570 979 575 q 1028 560 1017 564 q 1053 553 1039 556 q 1074 547 1063 551 q 1101 537 1085 543 q 1146 528 1118 537 q 1177 499 1175 518 l 1177 491 q 1160 468 1177 475 q 1126 461 1142 461 q 1066 465 1101 461 q 994 480 1031 469 q 925 507 958 491 q 876 545 892 524 l 836 589 l 898 589 m 564 513 q 553 496 564 502 q 545 487 551 491 q 534 477 540 483 q 495 454 521 467 q 439 431 469 442 q 382 415 410 420 q 339 410 355 410 q 323 410 334 410 q 296 412 312 410 q 271 420 282 412 q 260 437 260 429 q 275 461 260 450 q 307 477 290 472 q 342 486 326 483 q 363 491 358 488 q 396 506 372 499 q 446 521 420 513 q 496 536 472 529 q 529 543 521 543 q 555 534 545 543 q 564 513 564 526 m 412 285 q 431 304 420 293 q 450 320 442 315 q 467 332 456 326 q 488 339 477 339 q 503 334 502 339 q 505 328 505 328 q 494 296 505 315 q 477 271 480 279 q 406 172 453 209 q 282 136 358 136 q 243 148 250 136 q 236 182 236 160 q 243 224 236 206 q 279 241 250 241 q 297 240 288 241 q 315 239 307 239 q 361 252 336 239 q 412 285 385 266 z "},"祝":{"ha":1389,"x_min":52,"x_max":1337,"o":"m 448 1085 q 437 1065 448 1069 q 412 1061 426 1061 q 404 1063 410 1063 q 363 1074 391 1069 q 270 1096 317 1082 q 179 1126 222 1109 q 170 1133 174 1131 q 163 1139 165 1134 q 153 1150 157 1147 q 149 1158 149 1153 q 165 1180 149 1172 q 195 1188 182 1188 q 252 1180 212 1188 q 336 1160 293 1172 q 414 1128 380 1147 q 448 1085 448 1109 m 760 656 q 770 662 762 656 q 798 686 787 673 l 841 730 q 903 788 865 751 q 974 838 941 825 q 991 848 979 841 q 1004 860 1004 854 q 990 868 998 868 q 876 879 936 879 l 754 882 l 754 711 l 754 673 q 760 656 760 656 m 434 643 q 450 640 442 640 q 490 637 469 637 q 534 629 510 637 q 605 620 567 624 q 684 610 643 616 q 681 669 681 629 q 675 751 681 708 q 667 856 673 808 q 656 920 662 903 q 643 993 643 947 q 632 1034 643 1023 q 616 1042 616 1034 l 613 1050 l 621 1058 q 635 1061 629 1061 q 646 1061 640 1061 q 684 1044 662 1061 q 690 1038 689 1042 q 694 1031 692 1034 q 699 1025 697 1028 q 705 1017 700 1023 q 732 985 722 1001 q 770 963 743 968 q 830 952 795 952 q 869 949 849 949 q 914 949 890 949 q 991 944 955 947 q 1047 930 1028 941 q 1072 901 1066 917 q 1077 868 1077 884 q 1058 818 1077 844 q 1012 766 1039 792 q 956 719 985 741 q 909 684 928 697 q 897 671 901 675 q 887 662 892 667 q 882 656 882 656 q 898 646 887 651 q 914 637 901 643 q 930 597 925 629 q 982 388 960 496 q 1004 176 1004 279 q 1004 152 1004 171 q 1006 109 1004 133 q 1015 79 1006 92 q 1020 68 1020 71 q 1020 65 1020 65 q 1053 92 1031 65 q 1080 130 1074 119 q 1126 197 1104 160 q 1169 274 1147 233 q 1215 351 1194 315 q 1256 420 1237 388 q 1284 460 1261 431 q 1324 488 1308 488 q 1335 480 1335 488 q 1337 475 1337 480 q 1337 472 1337 475 q 1332 448 1337 464 q 1318 415 1326 431 q 1306 384 1313 399 q 1297 361 1299 369 q 1255 266 1283 328 q 1191 141 1226 203 q 1111 30 1156 81 q 1015 -22 1066 -22 q 963 11 982 -22 q 936 73 944 43 q 924 145 925 109 q 920 195 922 182 q 917 227 920 203 q 911 277 914 250 q 903 326 909 304 q 895 350 898 347 q 888 384 890 363 q 887 423 887 404 q 856 332 873 377 q 825 241 838 288 q 814 210 819 231 q 800 165 808 190 q 783 123 792 144 q 768 95 773 103 q 751 62 754 81 q 746 45 749 52 q 738 27 743 38 q 724 -8 735 19 q 684 -35 711 -35 q 643 3 643 -35 q 650 38 643 14 q 667 90 656 62 q 680 115 675 103 q 689 138 684 127 q 697 152 694 149 q 703 160 703 157 q 708 163 705 160 q 711 171 711 163 q 751 266 735 209 q 768 317 760 293 q 784 369 776 342 q 796 410 787 377 q 819 477 806 442 q 831 536 825 510 q 841 575 838 562 q 827 567 838 572 q 766 544 800 553 q 703 534 732 534 q 570 543 637 534 q 434 556 502 551 q 441 484 437 518 q 448 415 445 450 q 458 221 453 317 q 464 27 464 125 l 464 3 q 407 -60 464 -60 q 388 -49 391 -52 l 388 -41 l 388 -30 q 385 8 385 -22 q 376 155 380 81 q 372 298 372 228 q 366 406 372 350 q 355 513 361 461 q 345 543 353 524 q 343 537 345 537 q 342 534 342 537 q 317 502 331 524 q 241 399 279 461 q 156 294 203 342 q 73 247 109 247 q 52 271 52 247 q 53 277 52 274 q 54 285 54 279 q 62 298 57 288 q 77 316 71 307 q 92 334 84 326 q 144 392 109 350 q 213 479 179 434 q 271 566 247 524 q 296 627 296 608 q 293 632 296 629 l 293 640 q 300 651 293 648 q 309 656 307 654 l 323 656 l 331 665 q 338 670 334 665 q 342 678 342 675 q 388 736 366 703 q 423 803 410 770 q 382 798 412 803 q 359 792 369 795 q 336 787 350 789 q 254 770 293 779 q 168 762 214 762 q 148 762 163 762 q 119 765 133 762 q 90 774 103 765 q 76 800 76 784 q 103 846 76 817 q 146 876 130 876 q 161 868 157 876 q 165 857 165 860 q 157 844 165 849 l 157 836 q 165 833 163 836 q 254 838 212 833 q 342 852 296 844 q 382 860 363 857 q 423 871 401 863 q 464 876 445 876 q 505 876 483 876 q 518 876 510 876 q 537 873 526 876 q 557 867 548 873 q 567 846 567 860 q 562 825 567 841 q 553 808 562 822 q 534 780 545 795 q 514 754 524 765 q 502 741 505 743 q 484 722 496 735 q 463 693 472 708 q 444 665 453 678 q 434 643 434 651 z "},"福":{"ha":1392,"x_min":57,"x_max":1335,"o":"m 1042 833 l 1036 833 q 985 827 1009 827 q 947 825 966 825 q 917 822 928 825 l 917 711 q 948 741 930 727 q 982 770 966 754 l 1042 833 m 1080 738 q 1107 741 1088 741 q 1120 738 1115 741 q 1134 722 1134 738 q 1104 682 1134 705 q 1035 637 1074 659 q 959 600 996 616 q 909 583 922 583 q 827 656 836 583 q 826 686 825 670 q 827 716 827 703 q 829 882 827 800 q 841 1039 830 963 q 844 1066 844 1055 q 844 1093 844 1077 q 827 1099 836 1099 q 788 1109 817 1099 q 731 1137 760 1120 q 681 1169 703 1153 q 659 1202 659 1185 q 667 1215 659 1207 q 674 1218 670 1218 q 681 1221 678 1218 q 734 1217 713 1221 q 787 1199 754 1213 q 838 1183 808 1185 q 892 1180 868 1180 q 978 1187 930 1180 q 1058 1207 1025 1194 q 1099 1215 1074 1215 q 1130 1208 1112 1215 q 1147 1183 1147 1202 q 1134 1161 1147 1172 q 1126 1157 1131 1158 q 1115 1150 1120 1156 q 1080 1131 1104 1139 q 1028 1116 1055 1123 q 975 1104 1001 1109 q 936 1099 949 1099 q 924 1099 930 1099 q 909 1093 917 1099 q 892 1088 892 1093 q 890 1082 890 1088 l 890 1077 q 892 1032 890 1055 q 901 985 895 1009 q 911 943 909 963 q 920 901 914 922 l 990 901 l 1039 901 q 1073 898 1053 901 q 1111 890 1093 895 q 1143 872 1128 884 q 1158 844 1158 860 q 1142 803 1158 825 q 1109 762 1126 781 q 1095 750 1104 757 q 1080 738 1085 743 m 244 1194 q 255 1191 250 1194 q 266 1188 260 1188 q 334 1176 298 1183 q 407 1166 369 1169 q 467 1164 437 1166 q 521 1147 496 1161 q 529 1131 529 1137 q 521 1115 529 1123 q 513 1112 515 1112 q 507 1109 510 1112 q 454 1103 480 1104 q 404 1101 429 1101 q 311 1115 361 1101 q 233 1175 260 1128 l 225 1188 l 244 1194 m 467 570 q 469 559 467 562 q 475 543 469 548 q 484 490 480 526 q 491 411 488 453 q 494 328 494 369 q 494 269 494 288 q 494 202 494 252 q 491 95 494 152 q 484 -7 488 43 q 467 -73 480 -57 q 457 -84 467 -79 q 442 -90 448 -90 q 427 -84 431 -90 q 420 -73 423 -79 q 412 -49 418 -68 q 407 -16 407 -35 q 407 22 407 3 q 404 94 404 60 q 404 133 404 127 q 407 362 404 247 q 412 594 410 477 q 353 521 396 572 q 256 418 309 469 q 157 326 203 366 q 92 285 111 285 q 57 317 57 285 q 73 359 57 339 q 109 391 90 380 q 155 425 130 404 q 201 472 179 445 q 288 572 247 521 q 361 684 328 624 q 434 836 407 760 q 442 846 442 841 q 423 841 442 846 q 392 826 410 836 q 355 808 374 817 q 270 779 315 792 q 184 765 225 765 q 141 783 160 765 q 122 827 122 800 q 127 840 122 836 q 138 844 133 844 q 160 846 144 846 l 174 846 l 193 846 q 269 860 225 846 q 361 887 312 873 q 406 901 382 892 q 453 917 429 909 q 532 930 496 930 q 552 918 548 930 q 556 901 556 906 q 540 846 556 879 q 505 784 524 814 q 484 751 494 765 q 469 727 475 738 q 461 703 464 711 q 458 689 458 694 q 471 663 458 673 q 500 647 483 654 q 537 635 518 640 q 564 627 556 629 q 610 617 589 621 q 648 608 632 613 q 662 601 654 602 q 678 594 670 600 q 692 575 692 594 q 678 556 692 564 q 663 551 670 551 q 651 548 656 551 l 610 548 q 552 551 583 548 q 496 562 521 553 q 477 567 483 567 q 467 570 472 570 m 1251 288 l 1251 524 q 1242 543 1251 537 l 1226 543 q 1141 532 1177 543 q 1061 505 1104 521 l 1061 418 l 1061 366 q 1063 342 1061 345 q 1080 336 1069 336 q 1131 334 1093 334 l 1164 334 l 1142 315 q 1090 277 1107 290 q 1066 247 1074 263 q 1055 212 1061 239 q 1054 186 1055 198 q 1050 155 1053 174 q 1044 118 1047 136 q 1042 81 1042 100 q 1058 60 1042 60 q 1104 100 1104 60 q 1101 106 1101 103 q 1120 133 1101 133 q 1185 122 1145 133 q 1237 87 1226 111 q 1238 83 1237 84 q 1240 79 1240 81 l 1240 68 q 1242 60 1240 62 q 1245 157 1242 95 q 1251 288 1248 220 m 1326 526 q 1332 492 1332 510 q 1335 461 1332 475 l 1335 412 q 1332 227 1335 320 q 1329 38 1329 133 q 1326 -14 1326 14 q 1326 -68 1326 -41 q 1322 -84 1326 -73 q 1302 -95 1318 -95 q 1279 -90 1291 -95 q 1256 -79 1267 -84 q 1237 -62 1248 -73 q 1215 -43 1226 -52 q 1198 -24 1207 -35 q 1177 -8 1188 -14 q 1158 3 1164 3 q 1137 0 1147 3 q 1112 -8 1126 -3 q 997 -35 1058 -27 q 876 -43 936 -43 q 849 -42 868 -43 q 811 -37 830 -41 q 780 -23 792 -33 q 768 0 768 -14 q 779 19 768 14 q 789 23 784 22 q 800 27 795 24 q 829 35 814 35 q 863 38 844 35 q 892 42 876 41 q 922 46 909 43 q 932 49 928 49 q 941 52 936 49 q 949 60 941 52 q 955 81 949 71 q 960 133 960 95 q 968 225 968 176 q 945 222 955 225 q 925 217 936 220 q 901 209 909 209 q 876 206 892 206 q 850 212 863 206 q 838 236 838 217 q 863 271 838 252 q 884 283 873 277 q 911 296 895 290 q 949 311 930 304 q 979 323 968 317 l 979 472 q 914 460 947 467 q 849 442 882 453 q 833 437 844 442 q 823 435 827 437 q 814 434 819 434 q 793 444 798 434 q 789 458 789 453 q 817 511 789 491 q 876 532 844 532 q 982 559 930 545 q 1082 581 1034 572 q 1126 591 1107 589 q 1164 600 1145 594 q 1206 608 1185 605 q 1253 610 1226 610 q 1306 585 1291 610 q 1326 526 1321 559 m 798 342 q 796 274 798 326 q 788 167 795 222 q 769 68 781 111 q 735 24 757 24 l 727 24 l 724 27 q 715 66 716 43 q 711 114 713 90 l 711 198 q 711 273 711 220 q 712 384 711 326 q 718 494 713 442 q 727 556 722 545 l 732 562 l 738 562 q 768 533 754 562 q 787 467 781 505 q 795 393 792 429 q 798 342 798 358 z "},"紫":{"ha":1389,"x_min":239,"x_max":1147,"o":"m 412 1278 q 437 1271 426 1278 q 453 1253 448 1264 q 490 1179 469 1223 q 510 1107 510 1134 q 518 1082 510 1085 q 524 1082 521 1082 q 543 1082 534 1082 q 555 1088 548 1085 q 570 1093 562 1090 q 606 1105 591 1101 q 640 1109 621 1109 q 659 1107 651 1109 q 667 1085 667 1104 q 656 1061 667 1074 q 644 1054 651 1055 q 632 1044 637 1053 q 605 1034 616 1036 q 589 1028 594 1031 l 524 998 q 522 906 521 955 q 515 811 524 857 q 506 788 513 798 q 477 779 499 779 q 457 789 461 779 q 453 811 453 800 q 445 871 445 838 q 442 932 442 901 q 442 971 442 963 q 422 1099 434 1036 q 382 1218 410 1161 q 374 1248 374 1232 q 388 1271 374 1264 q 412 1278 401 1278 m 846 974 q 863 985 849 974 q 880 1004 871 993 q 906 1023 890 1015 q 928 1046 917 1034 q 952 1066 939 1058 q 968 1078 958 1072 q 987 1085 979 1085 q 1005 1082 993 1085 q 1023 1074 1017 1080 q 1031 1069 1028 1072 q 1039 1063 1034 1066 q 1053 1042 1053 1061 q 1042 1020 1053 1031 q 1025 1001 1031 1009 q 963 963 993 982 q 909 925 933 944 q 865 878 873 898 q 857 814 857 857 q 854 781 857 803 q 860 743 852 760 q 882 703 868 703 q 914 705 890 703 q 930 711 920 705 q 958 746 939 730 l 987 779 q 1023 838 1023 808 q 1020 846 1020 841 l 1020 852 q 1047 876 1020 876 q 1062 879 1055 879 q 1074 879 1069 879 q 1111 871 1093 879 q 1128 844 1128 863 q 1100 785 1128 825 q 1028 708 1072 746 q 943 642 985 670 q 871 613 901 613 q 803 654 825 613 q 781 735 781 694 q 777 755 779 743 q 776 781 776 768 l 773 833 q 688 772 732 800 q 594 713 643 743 q 576 705 586 708 q 559 694 567 703 q 540 667 540 681 q 534 643 540 659 l 529 635 l 518 640 q 502 646 510 640 q 472 658 486 656 q 442 659 458 659 q 400 666 420 662 q 363 692 380 670 q 343 735 350 708 q 334 787 336 762 q 323 823 328 803 q 312 860 317 844 q 297 903 307 884 q 282 944 288 922 q 254 1024 269 985 q 239 1101 239 1063 q 240 1122 239 1109 q 250 1147 241 1134 l 260 1156 l 269 1147 q 279 1134 290 1134 q 281 1135 279 1137 q 282 1128 282 1134 q 293 1101 285 1115 q 307 1074 301 1088 q 340 1012 323 1055 q 373 925 358 968 q 399 836 388 882 q 418 757 410 789 q 429 741 423 741 q 439 738 431 738 q 509 764 456 738 q 621 823 562 789 q 726 895 681 857 q 770 952 770 933 q 769 987 770 966 q 760 1034 768 1009 q 750 1085 754 1061 q 743 1123 746 1109 q 741 1139 743 1128 q 732 1161 738 1150 q 730 1172 730 1166 q 727 1183 730 1177 q 726 1187 727 1185 q 724 1194 724 1188 q 749 1218 724 1218 q 792 1188 773 1218 q 811 1150 800 1175 q 827 1100 822 1126 q 837 1050 833 1074 q 841 1009 841 1025 q 841 998 841 1006 q 844 979 841 990 q 846 974 844 974 m 616 429 q 606 426 618 429 q 589 420 594 423 l 567 420 q 551 422 562 420 q 524 426 540 423 q 491 469 491 431 q 494 473 494 472 q 496 477 494 475 q 502 487 499 483 q 507 502 505 491 q 524 528 510 513 q 551 556 537 543 q 581 594 562 567 q 620 651 600 621 q 654 708 640 681 q 667 746 667 735 q 686 757 678 757 q 718 730 700 757 q 730 697 735 703 l 730 692 l 730 692 q 665 589 700 640 q 602 491 629 537 q 629 502 613 496 q 652 514 640 507 q 681 526 665 521 q 736 549 708 537 q 789 562 765 562 q 817 555 800 562 q 833 534 833 548 q 812 498 833 513 q 779 480 792 483 q 713 433 760 472 q 616 350 667 393 q 571 308 594 328 q 526 271 548 288 q 509 255 521 271 q 496 239 496 239 l 499 239 q 536 248 510 239 q 587 269 562 258 q 636 294 613 279 q 673 317 659 309 q 768 368 719 336 q 846 434 817 399 q 871 442 860 442 q 894 437 882 442 q 917 423 906 431 q 935 401 928 415 q 955 377 941 388 q 972 353 966 363 q 982 331 979 342 q 990 327 987 328 q 998 323 993 326 q 1015 316 1004 323 q 1025 298 1025 309 q 1028 277 1028 290 q 1024 250 1028 263 q 993 236 1020 236 q 948 258 971 236 q 909 301 925 279 q 886 330 901 309 q 868 358 871 350 q 841 340 860 355 q 800 308 822 326 q 764 278 779 290 q 749 263 749 266 q 757 228 749 252 q 770 195 765 203 q 785 137 779 171 q 796 65 792 103 q 800 -7 800 27 q 800 -68 800 -41 q 789 -125 800 -98 q 738 -152 779 -152 q 701 -140 719 -152 q 670 -109 684 -127 q 646 -68 656 -90 q 627 -35 635 -46 q 618 -16 627 -33 q 608 19 610 0 q 598 38 602 27 q 589 57 594 49 q 586 64 586 62 q 583 65 586 65 q 581 73 581 71 l 581 81 l 594 92 l 600 92 q 613 84 605 92 q 613 81 613 81 q 629 68 616 79 q 648 42 640 57 q 665 19 656 27 q 692 -15 678 0 q 719 -41 705 -30 q 715 26 719 -11 q 705 95 711 62 q 703 123 705 100 q 694 174 700 146 q 686 222 692 201 q 681 231 686 228 q 662 225 678 231 q 635 216 648 222 q 610 203 621 209 q 549 178 581 190 q 502 160 518 165 q 464 149 472 155 q 448 111 456 138 q 439 71 439 84 q 439 71 439 71 q 442 73 439 71 q 464 92 456 90 l 469 92 l 475 87 q 480 71 480 81 q 464 38 480 65 q 425 -15 448 11 q 378 -62 401 -41 q 336 -84 355 -84 q 320 -80 331 -84 q 309 -60 309 -76 q 315 -42 309 -54 q 326 -11 320 -30 q 340 22 331 5 q 355 60 350 38 q 385 127 369 95 q 401 171 401 160 q 380 198 380 176 q 415 252 380 217 q 492 326 450 288 q 572 393 534 363 q 613 423 610 423 q 613 426 613 423 q 616 430 616 429 q 616 429 616 431 m 849 206 q 901 184 868 206 q 968 144 933 163 q 1000 118 982 130 q 1028 98 1017 106 q 1050 87 1044 90 q 1054 84 1053 84 q 1058 81 1055 84 q 1081 69 1066 81 q 1111 39 1096 57 q 1137 8 1126 22 q 1147 -14 1147 -5 q 1134 -39 1147 -33 q 1112 -46 1120 -46 q 1050 -16 1096 -46 q 955 54 1004 14 q 867 134 906 95 q 827 187 827 174 q 849 206 827 206 z "},"纷":{"ha":1386,"x_min":30,"x_max":1356,"o":"m 448 317 q 429 279 448 309 q 381 210 410 250 q 319 126 353 171 q 255 42 285 81 q 202 -24 225 3 q 171 -54 179 -52 q 149 -57 165 -57 q 127 -49 141 -57 q 114 -27 114 -41 q 123 3 114 -11 q 141 24 133 16 q 170 57 155 41 q 198 95 184 73 q 263 165 231 136 q 309 209 296 195 q 401 312 353 263 q 410 317 407 317 q 418 323 412 317 q 423 326 423 326 q 427 327 426 326 q 434 328 429 328 q 448 317 448 328 m 163 358 q 209 376 176 358 q 258 399 241 393 q 323 430 288 418 q 382 442 358 442 q 399 438 388 442 q 410 420 410 434 q 365 377 410 404 q 264 324 320 350 q 153 281 209 298 q 76 263 98 263 q 45 270 60 263 q 30 298 30 277 q 34 316 30 309 q 43 328 38 323 q 49 334 46 334 q 57 339 52 334 l 68 347 q 130 433 84 366 q 227 575 176 499 q 315 716 277 651 q 353 798 353 781 l 353 800 l 304 738 q 221 642 263 689 q 130 553 179 594 q 117 541 125 548 q 103 529 109 534 q 79 521 95 521 q 46 553 46 521 q 60 595 46 570 q 92 654 73 621 q 141 726 117 689 q 193 803 165 762 q 294 962 250 887 q 339 1080 339 1036 q 336 1108 339 1099 q 328 1128 334 1118 q 315 1150 323 1139 q 301 1175 307 1161 l 296 1183 l 304 1188 q 316 1196 309 1196 q 328 1196 323 1196 q 410 1162 396 1196 q 423 1080 423 1128 q 392 955 423 1017 q 323 841 361 892 q 286 791 304 814 q 255 749 269 768 q 240 735 244 743 q 231 719 236 727 l 266 746 q 298 777 282 762 q 317 795 315 792 l 355 827 q 380 860 361 844 q 412 876 399 876 q 442 854 434 876 q 450 814 450 833 q 404 689 450 762 q 304 548 358 616 q 251 481 277 513 q 203 420 225 450 q 186 396 195 407 q 171 374 176 385 q 167 366 168 369 q 163 358 165 363 m 637 1053 q 640 1063 637 1061 q 654 1074 640 1074 q 686 1053 675 1074 q 697 1012 692 1034 q 701 966 703 987 q 700 939 700 944 l 700 890 q 697 867 697 879 q 692 841 697 854 q 659 780 684 822 q 602 699 635 738 q 534 629 570 659 q 469 600 499 600 q 450 602 458 600 q 439 618 439 602 q 448 646 439 635 q 458 658 453 651 q 469 673 464 665 q 502 715 486 694 q 540 757 518 735 q 606 880 575 811 q 637 1036 637 949 l 637 1053 m 1028 41 l 1028 35 q 1006 -34 1028 3 q 947 -71 985 -71 q 856 -26 873 -71 q 838 71 838 19 q 844 142 838 106 q 865 209 849 179 l 876 233 l 887 209 q 891 193 890 203 q 895 165 892 182 q 899 136 898 152 q 906 103 901 119 q 913 65 909 84 q 933 27 917 46 l 936 27 l 947 41 q 1017 237 987 125 q 1050 439 1047 350 l 1053 545 q 1005 544 1039 545 q 932 540 971 543 q 861 532 892 537 q 825 518 830 526 l 825 513 q 827 486 825 499 q 830 458 830 472 q 804 340 830 412 q 735 199 779 269 q 637 79 692 130 q 524 27 583 27 q 488 60 488 27 q 499 88 488 79 q 524 103 510 98 q 628 180 594 127 q 694 298 662 233 q 728 385 713 339 q 743 475 743 431 q 732 511 743 505 q 705 524 722 518 q 666 534 684 524 q 648 570 648 545 q 662 594 648 589 q 689 600 675 600 q 718 597 703 600 q 746 594 732 594 q 806 598 779 594 q 865 608 833 602 q 987 624 922 624 q 1105 591 1061 624 q 1150 483 1150 559 q 1139 392 1150 439 q 1115 296 1128 345 q 1088 201 1101 247 q 1063 111 1074 155 q 1054 72 1063 98 q 1028 41 1044 46 m 795 1107 q 819 1126 795 1126 q 844 1120 830 1126 q 871 1109 857 1115 q 935 1059 890 1099 q 1032 968 979 1020 q 1143 857 1085 917 q 1249 746 1202 798 q 1326 656 1297 694 q 1356 610 1356 618 q 1351 590 1356 602 q 1329 578 1345 578 q 1282 593 1302 578 q 1248 621 1261 608 q 1130 749 1191 689 q 1009 871 1069 808 q 971 909 1004 876 q 898 982 939 941 q 860 1023 876 1006 q 830 1055 844 1039 q 818 1069 822 1063 q 806 1080 814 1074 l 798 1088 q 793 1096 792 1093 q 795 1101 795 1099 l 795 1107 z "},"缤":{"ha":1392,"x_min":60,"x_max":1332,"o":"m 762 1280 l 768 1280 q 822 1274 779 1280 q 910 1256 865 1267 q 990 1226 955 1245 q 1025 1188 1025 1207 q 1010 1162 1025 1169 q 982 1156 996 1156 q 856 1183 914 1156 q 751 1256 798 1210 q 750 1261 751 1259 q 749 1267 749 1264 l 749 1272 l 762 1280 m 382 741 q 377 736 380 738 q 372 732 374 735 l 353 711 q 340 694 345 703 q 331 673 336 686 q 319 651 326 659 q 307 629 312 643 q 270 594 290 608 q 220 581 250 581 q 186 590 201 581 q 171 621 171 600 q 195 708 171 646 q 225 769 212 738 q 258 838 239 800 q 315 978 285 909 q 345 1093 345 1047 q 342 1107 345 1104 q 339 1115 342 1112 l 339 1126 q 353 1139 339 1137 q 374 1142 366 1142 q 415 1124 404 1142 q 426 1082 426 1107 q 399 967 426 1036 q 339 836 372 898 q 304 760 323 798 q 269 686 285 722 l 282 700 q 298 720 290 708 q 317 743 307 732 q 338 768 331 754 q 361 792 345 781 q 410 814 385 814 q 452 796 437 814 q 467 754 467 779 q 446 673 467 727 q 404 597 426 618 q 392 579 399 591 q 374 551 385 567 q 354 521 363 534 q 339 499 345 507 q 269 399 307 453 q 198 293 231 345 q 252 324 228 309 q 296 358 277 339 q 384 411 339 385 q 445 437 429 437 q 453 435 448 437 q 458 426 458 434 q 453 412 458 423 q 416 369 453 404 q 332 296 380 334 q 241 225 285 258 q 184 187 198 193 q 117 171 152 171 q 80 176 100 171 q 60 203 60 182 q 65 224 60 209 q 76 244 71 239 q 123 312 98 279 q 179 374 149 345 q 228 448 195 396 q 293 555 260 499 q 353 662 326 610 q 382 741 380 713 m 694 936 q 693 897 694 922 q 685 844 692 871 q 666 799 678 817 q 632 781 654 781 q 605 808 605 781 q 609 864 605 838 q 613 920 613 890 q 608 960 613 941 q 597 996 602 979 q 585 1029 591 1015 q 578 1066 578 1044 q 585 1089 578 1077 q 605 1101 591 1101 q 635 1081 618 1101 q 665 1031 651 1061 q 686 975 678 1001 q 694 936 694 949 m 1015 996 q 955 981 987 993 q 884 949 922 968 q 811 918 854 936 q 735 901 768 901 q 712 907 724 901 q 700 925 700 914 q 703 930 700 928 l 703 933 q 704 936 703 936 q 705 939 705 936 q 716 944 711 944 q 741 966 732 955 q 769 982 754 977 q 789 987 784 987 q 922 1050 852 1023 q 1066 1077 993 1077 q 1128 1066 1099 1077 q 1158 1017 1158 1055 l 1158 1012 q 1152 997 1156 1006 q 1128 987 1147 987 q 1118 982 1128 987 q 1058 948 1093 971 q 996 906 1023 925 q 901 848 949 871 q 833 825 852 825 q 814 841 814 825 q 815 848 814 846 q 817 852 817 849 q 825 863 822 857 q 846 879 836 868 q 880 905 863 892 q 922 928 898 917 q 975 964 949 947 q 1015 996 1001 982 m 825 426 q 853 449 833 431 q 897 487 873 467 q 940 529 920 507 q 974 564 960 551 q 935 541 960 556 q 884 506 909 526 q 842 464 860 486 q 825 426 825 442 m 1039 315 l 1031 315 q 941 296 993 315 q 890 277 917 288 q 833 255 863 266 q 718 216 776 233 q 613 198 659 198 q 581 205 600 198 q 562 236 562 212 q 589 274 562 255 q 635 302 602 285 q 686 326 667 320 q 722 347 711 334 q 731 396 724 355 q 747 487 738 437 q 765 587 757 537 q 773 648 773 637 q 762 665 773 662 q 758 666 760 665 q 751 667 757 667 q 743 670 746 670 q 738 673 741 670 q 723 680 732 675 q 705 689 713 684 q 689 722 689 700 q 703 742 689 738 q 727 746 716 746 q 770 755 735 746 q 846 781 806 765 q 922 811 887 798 q 966 833 958 825 q 974 838 971 838 q 990 844 979 844 q 1012 811 1012 844 q 989 766 1012 784 q 939 735 966 749 q 895 718 928 730 q 854 697 863 705 q 844 644 846 681 q 841 589 841 608 q 887 602 865 594 q 930 621 909 610 q 1039 648 993 648 q 1076 643 1055 648 q 1096 613 1096 637 q 1063 560 1096 597 q 989 484 1031 524 q 909 412 947 445 q 852 372 871 380 q 819 347 838 369 q 803 336 808 339 q 949 377 876 361 q 1099 393 1023 393 q 1137 387 1118 393 q 1156 350 1156 380 q 1114 277 1156 312 q 1034 241 1072 241 q 1019 245 1028 241 q 1009 263 1009 250 q 1015 285 1009 269 q 1021 293 1017 290 q 1028 298 1025 296 q 1039 315 1036 309 m 483 236 q 452 156 483 220 q 378 23 420 92 q 288 -100 336 -46 q 206 -155 239 -155 q 172 -140 187 -155 q 157 -103 157 -125 q 160 -84 157 -90 q 174 -73 160 -76 l 179 -73 l 184 -73 l 193 -73 q 251 -27 212 -73 q 339 84 290 19 q 381 142 361 111 q 420 195 401 174 q 438 216 429 206 q 450 233 448 225 q 454 239 453 236 q 461 244 456 241 q 467 247 461 247 q 472 250 467 250 l 477 252 l 480 247 q 483 236 483 241 m 789 157 q 788 153 789 155 q 787 149 787 152 q 780 137 781 144 q 773 119 779 130 q 751 81 762 100 q 730 43 741 62 q 688 -39 708 -5 q 667 -76 667 -73 q 640 -109 667 -92 q 602 -125 613 -125 q 582 -115 589 -125 q 575 -92 575 -106 q 589 -56 575 -79 q 610 -22 602 -33 q 644 28 632 3 q 667 84 656 54 q 689 125 678 98 q 713 165 700 152 q 732 183 722 174 q 760 193 743 193 q 783 187 773 193 q 792 165 792 182 q 789 157 792 160 m 1015 141 q 1025 144 1020 144 q 1084 127 1050 144 q 1158 95 1118 111 q 1195 76 1175 87 q 1234 57 1215 65 q 1267 46 1253 49 q 1291 41 1280 43 q 1325 15 1318 35 q 1332 -22 1332 -5 q 1329 -49 1332 -35 q 1305 -62 1326 -62 q 1241 -42 1289 -62 q 1141 9 1194 -22 q 1048 71 1088 41 q 1009 127 1009 100 q 1015 141 1009 136 z "},"罗":{"ha":1392,"x_min":288,"x_max":1101,"o":"m 600 860 q 637 898 616 871 q 680 956 659 925 q 713 1017 700 987 q 727 1063 727 1047 q 694 1109 727 1109 q 650 1088 662 1109 q 632 1039 637 1066 q 621 1001 627 1017 q 616 972 618 996 q 608 928 613 949 q 598 882 602 901 q 594 857 594 863 q 600 860 600 860 m 697 860 q 716 868 705 860 q 787 895 749 884 q 863 906 825 906 q 898 941 873 906 q 948 1020 922 977 q 994 1105 974 1063 q 1015 1161 1015 1147 q 993 1166 1006 1166 q 951 1161 982 1166 q 886 1149 920 1156 q 825 1135 852 1142 q 795 1123 798 1128 q 792 1118 792 1123 q 795 1099 792 1104 q 798 1082 798 1090 q 800 1069 800 1077 q 769 962 800 1015 q 705 871 738 909 l 697 860 m 431 1099 q 433 1092 431 1093 q 434 1088 434 1090 q 457 997 450 1047 q 464 906 464 947 q 464 891 464 901 q 461 871 464 882 q 453 845 461 857 q 431 833 445 833 q 420 838 426 833 q 415 844 420 838 l 407 860 q 388 925 399 879 q 377 990 377 971 q 349 1089 369 1042 q 307 1183 328 1137 q 294 1211 301 1199 q 288 1232 288 1223 q 290 1248 288 1242 q 296 1259 290 1253 q 309 1264 301 1264 q 320 1261 315 1264 q 331 1256 326 1259 q 336 1251 331 1251 q 342 1245 342 1245 q 358 1223 353 1234 q 406 1171 380 1180 q 475 1161 431 1161 q 724 1185 602 1161 q 977 1210 846 1210 l 1009 1210 q 1028 1213 1017 1213 q 1077 1198 1053 1213 q 1101 1161 1101 1183 q 1070 1059 1101 1120 q 996 941 1039 998 q 897 842 952 884 q 792 800 841 800 l 776 800 q 770 798 773 800 q 727 730 743 770 q 677 635 705 681 q 616 543 648 589 q 574 475 594 510 q 540 407 553 439 q 624 460 572 429 q 727 521 675 491 q 826 570 779 551 q 906 589 873 589 q 949 576 930 589 q 968 532 968 564 q 951 461 968 499 q 911 388 933 423 q 888 357 898 372 q 871 328 879 342 q 856 309 863 323 q 849 285 849 296 q 845 275 849 282 q 836 263 841 269 q 822 241 830 252 q 815 233 817 239 q 806 222 814 228 q 798 206 803 220 q 819 189 798 201 q 854 176 841 176 q 932 140 890 176 q 974 65 974 103 q 968 34 974 49 q 939 19 963 19 q 906 33 928 19 q 879 46 887 43 q 846 71 865 60 q 808 92 827 81 q 774 111 792 103 q 743 133 757 119 q 674 57 716 103 q 581 -33 632 11 q 480 -107 529 -76 q 396 -138 431 -138 q 346 -113 355 -138 q 336 -54 336 -87 l 339 -41 l 355 -49 q 369 -60 366 -54 q 374 -73 369 -60 q 396 -81 380 -81 q 456 -45 412 -81 q 545 37 499 -8 q 628 119 591 81 q 667 163 665 157 q 662 168 665 165 q 654 176 659 171 q 633 186 648 182 q 605 195 618 190 q 578 209 591 201 q 556 222 564 217 q 547 229 551 228 q 537 236 543 231 q 526 252 526 244 q 548 274 526 274 q 587 269 562 274 q 629 255 613 263 q 674 245 651 250 q 713 241 697 241 q 749 263 730 241 q 776 304 754 269 q 821 382 798 339 q 865 465 844 426 q 890 513 887 505 q 884 515 887 513 l 868 515 q 789 486 836 515 q 692 418 743 456 q 589 345 640 377 q 505 315 543 315 q 465 324 480 315 q 450 361 450 334 q 484 457 450 393 q 559 589 518 521 q 598 650 581 618 q 632 705 616 681 q 644 730 637 719 q 656 749 651 741 q 662 757 656 751 q 646 751 656 757 q 628 749 637 751 q 610 743 618 746 q 567 728 589 738 q 518 719 545 719 q 502 720 513 719 q 475 727 491 722 q 453 734 464 727 q 442 754 442 741 q 456 784 442 776 q 469 791 461 789 q 483 798 477 792 q 499 803 491 803 q 513 806 507 803 q 537 846 537 811 q 553 1077 537 963 q 526 1082 540 1080 q 499 1088 513 1085 q 465 1095 480 1090 q 431 1099 450 1099 z "},"美":{"ha":1389,"x_min":233,"x_max":1156,"o":"m 686 993 q 741 996 708 993 q 806 1006 773 998 q 869 1023 838 1015 q 920 1039 901 1031 q 945 1055 930 1044 q 977 1066 960 1066 q 1000 1055 990 1066 q 1009 1031 1009 1044 q 985 1000 1009 1015 q 944 979 960 985 q 903 962 925 968 q 873 949 882 955 q 651 895 762 895 q 418 895 540 895 q 350 909 366 895 q 323 930 339 914 q 312 943 317 936 q 296 958 307 949 l 277 982 l 307 979 q 377 970 342 974 q 450 966 412 966 q 488 968 464 966 q 536 977 513 971 q 575 997 559 982 q 591 1031 591 1012 q 578 1076 591 1044 q 551 1139 564 1107 q 536 1171 545 1156 q 521 1202 526 1185 q 511 1227 515 1215 q 507 1251 507 1240 q 510 1264 507 1256 q 526 1272 513 1272 q 572 1248 551 1272 q 612 1191 594 1223 q 643 1123 629 1158 q 662 1069 656 1088 l 727 1126 q 770 1169 741 1134 q 781 1181 776 1175 q 792 1196 787 1188 q 798 1207 798 1207 l 800 1210 q 803 1223 800 1218 q 822 1234 803 1234 q 852 1221 838 1234 q 865 1194 865 1207 q 856 1165 865 1177 q 833 1137 846 1153 q 772 1074 803 1104 q 705 1017 741 1044 q 696 1005 700 1012 q 686 993 692 998 m 583 396 q 595 418 589 404 q 602 437 602 431 q 614 473 608 456 q 621 510 621 491 q 608 521 621 518 q 556 524 594 524 q 526 526 537 524 l 502 526 q 479 537 491 529 q 467 559 467 545 q 469 568 467 564 q 475 578 472 572 q 511 594 480 586 q 551 605 543 602 q 571 608 556 605 q 600 613 586 610 q 627 620 613 616 q 643 627 640 624 q 650 644 648 627 q 651 667 651 662 l 651 705 q 621 700 646 705 q 598 697 608 697 q 572 697 589 697 q 534 700 556 697 q 494 711 513 703 q 461 735 475 719 q 448 776 448 751 q 452 802 448 789 q 475 814 456 814 q 488 810 483 814 q 496 803 494 806 q 499 799 499 800 q 502 795 499 798 q 505 789 502 789 q 525 774 505 779 q 553 770 545 770 q 602 779 567 770 q 637 803 637 787 q 633 838 637 822 q 629 876 629 854 l 629 882 q 632 890 629 887 q 635 895 635 892 q 646 901 640 901 q 688 886 675 901 q 705 854 700 871 q 711 838 705 849 q 713 833 713 836 q 716 827 713 830 q 727 817 724 817 q 757 826 735 817 q 787 841 779 836 q 804 850 795 846 q 822 857 814 854 q 840 864 830 860 q 860 868 849 868 q 883 857 873 868 q 898 836 892 846 l 901 827 l 892 825 q 861 802 882 817 q 817 770 841 787 q 770 749 792 757 q 758 745 762 746 q 751 741 754 743 q 745 739 746 741 q 738 738 743 738 l 738 732 q 735 697 735 719 l 735 662 q 774 682 749 670 q 817 694 800 694 q 830 692 822 694 q 838 673 838 689 q 826 632 838 651 q 789 608 814 613 q 723 549 743 594 q 703 461 703 505 q 705 434 703 442 q 713 426 711 426 q 760 433 730 426 q 806 445 789 439 q 974 469 892 469 q 991 469 979 469 q 1015 467 1004 469 q 1025 465 1020 467 q 1036 464 1031 464 q 1053 442 1053 458 q 1031 410 1053 420 q 987 399 1009 399 q 903 381 947 391 q 817 363 860 372 l 697 339 q 682 305 692 328 q 656 250 673 282 q 644 216 651 233 q 632 184 637 198 q 628 175 629 179 q 621 163 627 171 q 620 160 621 160 q 618 157 618 160 q 617 149 618 152 q 616 144 616 146 q 605 127 610 133 q 593 104 600 114 q 581 84 586 95 q 551 41 564 60 q 529 16 537 22 q 486 -43 507 -14 q 437 -98 464 -73 q 431 -100 437 -100 q 423 -103 429 -103 q 374 -57 374 -103 q 377 -30 374 -52 q 385 -3 380 -8 q 388 1 388 0 q 391 5 388 3 q 404 11 399 11 q 423 0 412 11 q 463 43 434 3 q 518 136 491 84 q 567 236 545 187 q 589 301 589 285 l 583 301 q 572 304 581 304 l 562 304 q 448 294 505 304 q 334 285 391 285 q 312 286 328 285 q 282 290 296 288 q 251 298 269 290 q 233 323 233 307 q 233 326 233 326 q 239 331 239 331 q 243 334 241 334 q 247 336 244 334 q 263 342 250 336 q 279 347 274 347 q 288 347 285 347 q 354 363 323 358 q 420 374 385 369 q 502 385 461 380 q 583 396 543 391 m 806 236 q 872 187 817 236 q 991 76 928 138 q 1105 -42 1055 14 q 1156 -114 1156 -98 q 1150 -132 1156 -119 q 1128 -144 1145 -144 q 1063 -106 1107 -144 q 974 -22 1020 -68 q 888 65 930 22 q 808 157 846 109 q 792 182 798 171 q 787 193 789 187 q 784 203 784 198 q 788 225 784 214 q 806 236 792 236 z "},"霞":{"ha":1386,"x_min":119,"x_max":1267,"o":"m 1158 1072 q 1142 1074 1156 1074 q 1116 1077 1126 1077 q 1104 1077 1107 1077 q 1023 1073 1077 1077 q 910 1062 968 1069 q 804 1044 852 1055 q 741 1023 757 1034 q 726 989 727 1012 q 724 949 724 966 l 724 922 q 730 886 724 903 q 757 868 735 868 q 785 871 760 868 q 840 878 811 873 q 892 886 868 882 q 917 890 917 890 q 966 920 930 895 q 1040 974 1001 944 q 1115 1034 1080 1004 q 1158 1072 1150 1063 m 700 808 q 681 761 700 792 q 635 730 662 730 q 614 739 618 730 q 610 757 610 749 q 614 787 610 768 q 627 811 618 806 q 644 867 640 846 q 648 922 648 887 q 620 911 635 917 q 589 901 605 906 q 547 891 567 895 q 507 887 526 887 q 494 890 502 887 q 481 894 488 890 q 475 909 475 898 q 477 920 475 917 q 486 925 480 922 q 509 939 488 930 q 555 955 529 947 q 604 968 581 963 q 635 974 627 974 q 648 990 648 974 q 643 1001 648 1001 q 572 996 605 1001 q 502 982 540 990 q 361 968 434 968 q 323 971 336 968 q 313 971 320 971 q 301 974 307 971 q 285 977 288 974 q 279 977 282 977 q 277 979 277 979 q 275 983 277 982 q 274 987 274 985 q 285 1015 274 1004 q 300 1023 293 1020 q 312 1031 307 1025 q 349 1040 328 1039 q 393 1042 369 1042 q 465 1051 429 1042 q 543 1069 502 1061 l 637 1088 l 637 1169 q 574 1164 605 1166 q 507 1161 543 1161 q 468 1164 494 1161 q 423 1180 442 1166 q 396 1202 410 1185 q 382 1232 382 1218 q 393 1255 382 1251 q 415 1259 404 1259 q 442 1256 431 1259 q 463 1251 450 1251 q 491 1251 475 1251 l 548 1251 q 598 1251 562 1251 q 671 1252 635 1251 q 742 1256 708 1253 q 784 1264 776 1259 q 887 1275 830 1275 q 918 1268 901 1275 q 936 1251 936 1261 q 925 1223 936 1234 q 892 1208 917 1215 q 840 1198 868 1202 q 784 1188 811 1194 q 743 1180 757 1183 q 715 1175 738 1180 q 692 1158 692 1169 q 696 1123 692 1142 q 719 1104 700 1104 q 743 1105 730 1104 q 773 1109 757 1107 q 929 1131 849 1123 q 1093 1139 1009 1139 q 1131 1139 1104 1139 q 1188 1134 1158 1139 q 1240 1124 1213 1134 q 1267 1085 1267 1115 q 1219 1024 1267 1066 q 1111 937 1172 982 q 994 854 1050 892 q 917 806 939 817 l 887 789 q 922 776 901 784 q 968 760 944 768 q 1025 738 1001 751 q 1050 730 1044 732 q 1053 722 1053 730 q 1058 711 1058 716 q 1055 703 1058 703 q 1050 692 1055 703 q 1043 680 1050 686 q 1031 665 1036 673 q 1004 636 1020 651 q 974 608 987 621 q 959 594 971 605 q 935 571 947 583 q 910 548 922 559 q 898 537 898 537 q 920 534 906 534 l 952 534 l 974 534 q 1012 526 990 534 q 1034 496 1034 518 q 1021 467 1034 475 q 993 453 1009 458 q 962 435 985 450 q 913 399 939 420 q 867 358 887 377 q 841 328 846 339 q 887 340 857 328 q 928 361 917 353 q 1021 395 966 382 q 1123 407 1077 407 q 1156 397 1139 407 q 1172 374 1172 388 q 1149 316 1172 358 q 1095 229 1126 274 q 1034 142 1063 184 q 990 84 1004 100 q 1029 46 1004 68 q 1085 -3 1055 24 q 1122 -38 1104 -22 q 1153 -71 1139 -54 q 1175 -91 1164 -79 q 1185 -119 1185 -103 q 1177 -133 1185 -127 q 1172 -137 1175 -136 q 1166 -141 1169 -138 q 1150 -146 1158 -146 q 1116 -137 1137 -146 q 1074 -115 1096 -127 q 1036 -88 1053 -103 q 1015 -60 1020 -73 q 993 -35 1012 -52 q 971 -11 982 -22 l 939 14 q 894 -33 920 -5 q 836 -85 868 -60 q 772 -126 803 -111 q 711 -141 741 -141 q 663 -119 675 -141 q 651 -73 651 -98 q 656 -47 651 -60 q 675 -35 662 -35 q 697 -52 692 -35 q 699 -56 697 -54 q 700 -65 700 -57 l 700 -71 l 700 -79 q 703 -84 700 -81 q 749 -65 722 -84 q 803 -22 776 -46 q 852 27 830 3 q 873 65 873 52 q 863 92 873 79 q 849 109 857 100 q 836 127 841 117 q 823 145 830 138 q 811 157 817 152 q 800 172 806 163 q 795 187 795 182 q 810 203 795 198 q 830 209 825 209 q 868 195 844 209 q 895 165 879 187 q 909 153 901 160 q 922 141 917 146 l 930 133 q 956 161 936 136 q 1001 220 977 187 q 1047 285 1025 252 q 1074 328 1069 317 q 1020 320 1053 328 q 986 308 1004 317 q 944 290 968 298 q 865 262 909 274 q 781 250 822 250 q 745 259 768 250 q 722 290 722 269 q 746 334 722 312 l 792 380 q 818 404 806 393 q 838 423 830 415 l 860 439 l 852 439 q 827 442 844 442 q 792 449 814 442 q 770 475 770 456 q 802 533 770 496 q 868 600 833 570 q 902 635 884 618 q 933 665 920 651 l 958 692 q 879 707 920 692 q 825 757 838 722 q 819 776 819 776 l 819 787 q 814 792 819 792 q 795 796 806 795 q 765 798 784 798 q 722 803 743 798 q 718 806 722 806 q 708 808 713 806 l 700 808 m 936 1025 q 941 1023 939 1023 q 952 1017 944 1023 q 963 998 963 1004 q 960 990 963 993 q 955 982 958 987 q 945 977 952 977 q 936 974 939 977 q 907 962 928 968 q 865 949 887 955 q 825 941 844 944 q 798 939 806 939 q 764 948 784 939 q 743 974 743 958 q 765 994 743 985 q 814 1012 787 1004 q 867 1024 841 1020 q 906 1028 892 1028 q 918 1027 911 1028 q 936 1025 925 1025 m 133 1082 q 140 1081 138 1082 q 144 1080 141 1080 l 152 1072 q 159 1062 155 1066 q 168 1050 163 1058 q 182 1023 174 1036 q 198 993 190 1009 q 235 928 222 958 q 255 887 247 898 q 264 871 260 879 q 277 852 269 863 q 304 825 293 827 q 326 811 315 817 q 336 789 336 806 q 321 764 336 770 q 290 757 307 757 q 258 762 277 757 q 228 784 239 768 q 193 836 212 800 q 156 913 174 871 q 129 994 138 955 q 119 1058 119 1034 q 119 1074 119 1066 q 133 1082 119 1082 m 632 868 l 635 868 l 635 860 q 629 846 635 852 q 616 836 627 838 q 608 826 610 830 q 602 817 605 822 q 541 780 572 798 q 472 762 510 762 q 442 770 456 762 q 429 798 429 779 q 452 826 429 811 q 507 850 475 841 q 570 865 540 860 q 610 871 600 871 q 632 868 627 871 m 651 629 q 548 602 610 624 q 499 589 518 597 q 461 562 480 581 q 464 545 461 551 q 496 555 472 545 q 551 579 521 564 q 609 608 581 594 q 651 629 637 621 m 499 155 q 496 149 499 152 q 495 138 496 144 q 494 125 494 133 q 491 96 491 109 q 491 79 491 84 q 491 38 491 68 q 488 -27 491 8 q 484 -52 488 -35 q 475 -83 480 -68 q 461 -110 469 -98 q 445 -122 453 -122 q 422 -119 431 -122 q 412 -100 412 -117 q 410 56 412 -22 q 404 209 407 133 q 401 346 401 271 q 393 475 401 420 q 393 507 393 483 l 393 534 q 374 551 385 548 q 353 553 363 553 l 334 553 q 308 556 320 556 q 288 562 296 556 q 266 597 266 575 q 286 624 266 618 q 323 629 307 629 q 415 639 372 629 q 505 662 458 648 q 547 675 526 667 q 591 689 567 684 q 635 697 610 694 q 681 700 659 700 q 726 693 703 700 q 749 654 749 686 q 739 624 749 640 q 719 597 730 608 q 678 572 700 583 q 635 548 656 562 q 589 525 610 534 q 551 505 567 515 q 514 486 529 491 q 491 472 499 480 q 472 445 475 458 l 472 415 l 572 423 q 600 425 583 423 q 636 427 616 426 q 673 431 656 429 q 694 437 689 434 q 708 442 700 442 q 736 433 722 442 q 751 407 751 423 q 741 385 751 396 q 708 374 735 380 q 650 363 681 369 q 590 353 618 358 q 556 347 562 347 q 507 361 529 347 q 491 366 502 361 l 475 366 q 473 357 475 361 q 472 347 472 353 l 472 317 l 472 293 q 473 281 472 288 q 475 269 475 274 q 496 241 486 241 q 538 255 510 241 q 600 288 567 269 q 659 320 635 312 q 685 330 673 326 q 713 334 697 334 q 722 323 722 328 q 692 279 722 307 q 624 225 662 252 q 549 176 586 198 q 499 155 513 155 z "},"，":{"ha":949,"x_min":228,"x_max":426,"o":"m 274 88 q 290 111 274 88 q 357 115 307 133 q 416 62 407 98 q 407 -16 426 27 q 334 -117 382 -76 q 247 -165 266 -176 q 240 -142 228 -155 q 279 -87 252 -130 q 302 -46 298 -57 q 274 4 307 -35 q 274 88 241 43 z "}}}
